<svg xmlns="http://www.w3.org/2000/svg" xmlns:xlink="http://www.w3.org/1999/xlink" width="500" zoomAndPan="magnify" viewBox="0 0 375 374.999991" height="500" preserveAspectRatio="xMidYMid meet" version="1.2"><defs><clipPath id="b12d74899d"><path d="M 341 166 L 371.347656 166 L 371.347656 209 L 341 209 Z M 341 166 "/></clipPath></defs><g id="dbfe665b1d"><rect x="0" width="375" y="0" height="374.999991" style="fill:#ffffff;fill-opacity:1;stroke:none;"/><rect x="0" width="375" y="0" height="374.999991" style="fill:#ffffff;fill-opacity:1;stroke:none;"/><path style=" stroke:none;fill-rule:nonzero;fill:#fd4a2c;fill-opacity:1;" d="M 109.039062 178.15625 L 116.714844 178.15625 L 116.714844 208.824219 L 109.039062 208.824219 L 109.039062 205.582031 C 107.726562 206.886719 106.222656 207.917969 104.527344 208.667969 C 102.957031 209.3125 101.324219 209.628906 99.625 209.613281 C 95.671875 209.613281 92.253906 208.074219 89.371094 205.003906 C 86.484375 201.929688 85.042969 198.117188 85.042969 193.558594 C 85.042969 188.824219 86.4375 184.941406 89.230469 181.914062 C 92.019531 178.886719 95.410156 177.375 99.398438 177.375 C 101.195312 177.363281 102.921875 177.710938 104.574219 178.421875 C 106.265625 179.171875 107.757812 180.214844 109.042969 181.546875 Z M 100.964844 184.46875 C 99.84375 184.441406 98.769531 184.648438 97.738281 185.089844 C 96.707031 185.53125 95.8125 186.164062 95.054688 186.992188 C 93.488281 188.675781 92.699219 190.832031 92.699219 193.460938 C 92.695312 196.089844 93.496094 198.269531 95.101562 200 C 95.855469 200.835938 96.75 201.476562 97.78125 201.925781 C 98.8125 202.371094 99.890625 202.585938 101.015625 202.5625 C 102.148438 202.59375 103.238281 202.390625 104.285156 201.949219 C 105.332031 201.511719 106.242188 200.875 107.015625 200.042969 C 108.601562 198.363281 109.398438 196.160156 109.398438 193.429688 C 109.398438 190.765625 108.601562 188.605469 107.015625 186.949219 C 106.226562 186.125 105.308594 185.496094 104.253906 185.0625 C 103.199219 184.632812 102.105469 184.433594 100.964844 184.46875 Z M 100.964844 184.46875 "/><path style=" stroke:none;fill-rule:nonzero;fill:#fd4a2c;fill-opacity:1;" d="M 127.910156 178.15625 L 135.667969 178.15625 L 135.667969 192.925781 C 135.667969 195.800781 135.867188 197.796875 136.261719 198.914062 C 136.617188 199.984375 137.253906 200.847656 138.167969 201.503906 C 139.144531 202.164062 140.21875 202.472656 141.394531 202.433594 C 142.578125 202.46875 143.660156 202.164062 144.652344 201.515625 C 145.609375 200.835938 146.269531 199.941406 146.636719 198.824219 C 146.960938 197.945312 147.121094 196.054688 147.117188 193.160156 L 147.117188 178.15625 L 154.800781 178.15625 L 154.800781 191.152344 C 154.800781 196.503906 154.378906 200.167969 153.53125 202.140625 C 152.597656 204.472656 151.078125 206.324219 148.976562 207.695312 C 146.96875 208.984375 144.417969 209.625 141.324219 209.625 C 137.964844 209.625 135.25 208.875 133.179688 207.371094 C 132.125 206.59375 131.222656 205.664062 130.472656 204.589844 C 129.722656 203.511719 129.167969 202.339844 128.804688 201.078125 C 128.207031 199.214844 127.90625 195.832031 127.90625 190.933594 Z M 127.910156 178.15625 "/><path style=" stroke:none;fill-rule:nonzero;fill:#fd4a2c;fill-opacity:1;" d="M 166.894531 166.851562 L 174.574219 166.851562 L 174.574219 178.15625 L 179.132812 178.15625 L 179.132812 184.78125 L 174.574219 184.78125 L 174.574219 208.84375 L 166.894531 208.84375 L 166.894531 184.78125 L 162.957031 184.78125 L 162.957031 178.15625 L 166.894531 178.15625 Z M 166.894531 166.851562 "/><path style=" stroke:none;fill-rule:nonzero;fill:#fd4a2c;fill-opacity:1;" d="M 186.726562 166.320312 L 194.351562 166.320312 L 194.351562 181.257812 C 195.707031 180.046875 197.21875 179.078125 198.878906 178.339844 C 200.351562 177.695312 201.890625 177.371094 203.492188 177.367188 C 204.9375 177.335938 206.324219 177.59375 207.660156 178.144531 C 208.996094 178.691406 210.167969 179.484375 211.171875 180.523438 C 212.953125 182.347656 213.84375 185.027344 213.847656 188.554688 L 213.847656 208.824219 L 206.273438 208.824219 L 206.273438 195.378906 C 206.273438 191.824219 206.105469 189.417969 205.765625 188.164062 C 205.515625 187.023438 204.941406 186.082031 204.035156 185.34375 C 203.136719 184.6875 202.128906 184.378906 201.015625 184.414062 C 200.269531 184.402344 199.554688 184.527344 198.859375 184.796875 C 198.164062 185.066406 197.546875 185.453125 197.007812 185.964844 C 195.800781 187.136719 195.027344 188.542969 194.6875 190.191406 C 194.460938 191.109375 194.347656 193.207031 194.347656 196.484375 L 194.347656 208.804688 L 186.726562 208.804688 Z M 186.726562 166.320312 "/><path style=" stroke:none;fill-rule:nonzero;fill:#fd4a2c;fill-opacity:1;" d="M 255.386719 195.714844 L 230.714844 195.714844 C 230.855469 196.726562 231.171875 197.679688 231.664062 198.574219 C 232.15625 199.464844 232.792969 200.242188 233.570312 200.898438 C 235.121094 202.1875 237.089844 202.828125 239.484375 202.828125 C 240.867188 202.847656 242.199219 202.59375 243.480469 202.070312 C 244.765625 201.546875 245.894531 200.796875 246.871094 199.8125 L 253.339844 202.855469 C 251.851562 205.054688 249.921875 206.75 247.546875 207.941406 C 245.300781 209.042969 242.625 209.59375 239.53125 209.59375 C 234.726562 209.59375 230.816406 208.074219 227.800781 205.039062 C 224.78125 202.003906 223.285156 198.210938 223.304688 193.65625 C 223.304688 188.96875 224.808594 185.082031 227.820312 182.003906 C 230.828125 178.925781 234.601562 177.378906 239.144531 177.367188 C 243.960938 177.367188 247.878906 178.910156 250.898438 182.003906 C 253.917969 185.097656 255.429688 189.179688 255.429688 194.25 Z M 247.707031 189.65625 C 247.195312 187.910156 246.195312 186.519531 244.707031 185.484375 C 243.148438 184.378906 241.414062 183.84375 239.503906 183.878906 C 237.421875 183.839844 235.542969 184.441406 233.871094 185.683594 C 232.859375 186.425781 231.917969 187.746094 231.054688 189.65625 Z M 247.707031 189.65625 "/><path style=" stroke:none;fill-rule:nonzero;fill:#fd4a2c;fill-opacity:1;" d="M 265.050781 178.15625 L 272.738281 178.15625 L 272.738281 181.300781 C 274.15625 180.03125 275.734375 179.007812 277.46875 178.226562 C 278.859375 177.65625 280.308594 177.367188 281.8125 177.367188 C 283.261719 177.339844 284.660156 177.601562 286.003906 178.15625 C 287.347656 178.710938 288.523438 179.507812 289.535156 180.554688 C 291.316406 182.355469 292.203125 185.023438 292.203125 188.554688 L 292.203125 208.824219 L 284.609375 208.824219 L 284.609375 195.40625 C 284.609375 191.75 284.445312 189.316406 284.117188 188.117188 C 283.863281 187 283.296875 186.082031 282.417969 185.359375 C 281.519531 184.691406 280.515625 184.378906 279.402344 184.414062 C 278.65625 184.398438 277.9375 184.527344 277.246094 184.800781 C 276.550781 185.070312 275.9375 185.460938 275.398438 185.976562 C 274.183594 187.179688 273.414062 188.617188 273.082031 190.296875 C 272.859375 191.257812 272.746094 193.332031 272.746094 196.519531 L 272.746094 208.824219 L 265.050781 208.824219 Z M 265.050781 178.15625 "/><path style=" stroke:none;fill-rule:nonzero;fill:#fd4a2c;fill-opacity:1;" d="M 304.015625 166.851562 L 311.695312 166.851562 L 311.695312 178.15625 L 316.25 178.15625 L 316.25 184.78125 L 311.695312 184.78125 L 311.695312 208.84375 L 304.015625 208.84375 L 304.015625 184.78125 L 300.078125 184.78125 L 300.078125 178.15625 L 304.015625 178.15625 Z M 304.015625 166.851562 "/><path style=" stroke:none;fill-rule:nonzero;fill:#fd4a2c;fill-opacity:1;" d="M 326.808594 165.53125 C 327.464844 165.523438 328.09375 165.644531 328.695312 165.898438 C 329.296875 166.15625 329.824219 166.519531 330.277344 166.992188 C 330.75 167.460938 331.109375 168.003906 331.363281 168.621094 C 331.613281 169.238281 331.730469 169.878906 331.71875 170.546875 C 331.730469 171.207031 331.613281 171.839844 331.363281 172.449219 C 331.117188 173.058594 330.757812 173.59375 330.289062 174.054688 C 329.84375 174.527344 329.324219 174.886719 328.730469 175.140625 C 328.132812 175.390625 327.511719 175.515625 326.867188 175.507812 C 326.207031 175.515625 325.574219 175.394531 324.964844 175.136719 C 324.355469 174.878906 323.828125 174.507812 323.375 174.027344 C 322.902344 173.550781 322.542969 173 322.296875 172.375 C 322.050781 171.75 321.933594 171.101562 321.949219 170.433594 C 321.9375 169.78125 322.058594 169.152344 322.304688 168.550781 C 322.554688 167.949219 322.910156 167.421875 323.378906 166.96875 C 323.828125 166.5 324.351562 166.144531 324.945312 165.894531 C 325.542969 165.644531 326.164062 165.523438 326.808594 165.53125 Z M 326.808594 165.53125 "/><path style=" stroke:none;fill-rule:nonzero;fill:#fd4a2c;fill-opacity:1;" d="M 322.972656 178.15625 L 330.652344 178.15625 L 330.652344 208.824219 L 322.972656 208.824219 Z M 322.972656 178.15625 "/><g clip-rule="nonzero" clip-path="url(#b12d74899d)"><path style=" stroke:none;fill-rule:nonzero;fill:#fd4a2c;fill-opacity:1;" d="M 341.160156 166.320312 L 348.835938 166.320312 L 348.835938 190.800781 L 360.128906 178.15625 L 369.773438 178.15625 L 356.589844 192.855469 L 371.367188 208.824219 L 361.835938 208.824219 L 348.820312 194.691406 L 348.820312 208.824219 L 341.160156 208.824219 Z M 341.160156 166.320312 "/></g><path style=" stroke:none;fill-rule:nonzero;fill:#fd4a2c;fill-opacity:1;" d="M 43.417969 172.429688 L 45.769531 172.429688 L 45.769531 179.167969 L 43.417969 179.167969 Z M 43.417969 172.429688 "/><path style=" stroke:none;fill-rule:nonzero;fill:#fd4a2c;fill-opacity:1;" d="M 49.539062 172.144531 L 51.890625 172.144531 L 51.890625 177.414062 L 49.539062 177.414062 Z M 49.539062 172.144531 "/><path style=" stroke:none;fill-rule:nonzero;fill:#fd4a2c;fill-opacity:1;" d="M 15.238281 179.859375 C 14.464844 179.859375 13.707031 179.960938 12.964844 180.167969 C 12.21875 180.371094 11.515625 180.671875 10.851562 181.066406 C 10.1875 181.460938 9.585938 181.9375 9.050781 182.496094 C 8.515625 183.054688 8.0625 183.671875 7.695312 184.351562 L 11.683594 184.351562 C 13.453125 182.820312 16.019531 182.378906 17.886719 184.351562 L 22.09375 184.351562 C 20.449219 182.113281 17.976562 179.859375 15.238281 179.859375 Z M 15.238281 179.859375 "/><path style=" stroke:none;fill-rule:nonzero;fill:#fd4a2c;fill-opacity:1;" d="M 20.933594 188.414062 C 15.433594 199.945312 5.789062 190.117188 11.699219 184.34375 L 7.695312 184.34375 C 4.566406 189.808594 8.890625 197.179688 15.238281 197.015625 C 20.144531 197.015625 24.195312 189.714844 24.195312 188.421875 C 24.195312 187.851562 23.402344 186.109375 22.09375 184.351562 L 17.886719 184.351562 C 19.136719 185.53125 20.152344 186.886719 20.933594 188.414062 Z M 21.082031 188.078125 Z M 21.082031 188.078125 "/><path style=" stroke:none;fill-rule:nonzero;fill:#fd4a2c;fill-opacity:1;" d="M 73.902344 172.351562 L 73.902344 202.8125 C 73.902344 203.507812 73.832031 204.195312 73.695312 204.875 C 73.558594 205.554688 73.355469 206.214844 73.089844 206.855469 C 72.824219 207.496094 72.496094 208.105469 72.113281 208.683594 C 71.726562 209.261719 71.289062 209.792969 70.796875 210.285156 C 70.304688 210.773438 69.773438 211.210938 69.195312 211.597656 C 68.617188 211.984375 68.011719 212.308594 67.371094 212.574219 C 66.730469 212.839844 66.070312 213.039062 65.390625 213.175781 C 64.710938 213.308594 64.023438 213.375 63.332031 213.375 L 58.855469 213.375 L 58.855469 203.011719 L 37.445312 203.011719 L 37.445312 213.375 L 32.964844 213.375 C 32.273438 213.375 31.585938 213.308594 30.90625 213.171875 C 30.226562 213.035156 29.570312 212.835938 28.929688 212.570312 C 28.289062 212.304688 27.679688 211.980469 27.105469 211.59375 C 26.527344 211.207031 25.996094 210.769531 25.503906 210.28125 C 25.015625 209.789062 24.578125 209.257812 24.191406 208.679688 C 23.804688 208.105469 23.480469 207.496094 23.214844 206.855469 C 22.949219 206.214844 22.746094 205.554688 22.609375 204.875 C 22.472656 204.191406 22.402344 203.503906 22.402344 202.8125 L 22.402344 193.214844 L 56.34375 193.214844 L 56.34375 174.90625 L 39.957031 174.90625 L 39.957031 185.195312 L 22.402344 185.195312 L 22.402344 172.351562 C 22.402344 171.941406 22.425781 171.535156 22.472656 171.132812 C 22.527344 170.652344 22.613281 170.179688 22.734375 169.710938 C 22.773438 169.558594 22.816406 169.40625 22.859375 169.261719 C 22.867188 169.222656 22.878906 169.1875 22.894531 169.152344 C 22.917969 169.074219 22.941406 169.003906 22.96875 168.933594 C 22.992188 168.863281 23.019531 168.785156 23.046875 168.714844 C 23.070312 168.644531 23.105469 168.550781 23.136719 168.472656 C 23.171875 168.394531 23.203125 168.316406 23.234375 168.238281 C 23.496094 167.613281 23.816406 167.015625 24.195312 166.453125 L 24.195312 166.433594 C 24.289062 166.296875 24.390625 166.15625 24.492188 166.019531 C 24.597656 165.882812 24.667969 165.792969 24.75 165.683594 C 24.835938 165.570312 24.960938 165.433594 25.070312 165.3125 C 25.175781 165.191406 25.277344 165.078125 25.386719 164.96875 C 25.441406 164.902344 25.503906 164.84375 25.570312 164.785156 C 25.960938 164.40625 26.378906 164.054688 26.824219 163.734375 C 26.941406 163.648438 27.070312 163.566406 27.195312 163.484375 C 27.320312 163.402344 27.476562 163.300781 27.625 163.21875 C 27.898438 163.050781 28.183594 162.902344 28.472656 162.769531 L 28.75 162.644531 C 29.152344 162.46875 29.566406 162.320312 29.988281 162.195312 C 30.148438 162.148438 30.3125 162.105469 30.476562 162.066406 C 30.558594 162.042969 30.636719 162.023438 30.71875 162.011719 C 31.191406 161.90625 31.667969 161.835938 32.148438 161.800781 L 32.457031 161.800781 C 32.617188 161.800781 32.78125 161.800781 32.941406 161.800781 L 63.332031 161.800781 C 63.488281 161.800781 63.652344 161.800781 63.8125 161.800781 L 64.121094 161.800781 C 64.605469 161.835938 65.082031 161.90625 65.554688 162.011719 C 65.636719 162.011719 65.714844 162.042969 65.792969 162.066406 C 65.960938 162.105469 66.121094 162.148438 66.28125 162.195312 C 66.703125 162.316406 67.117188 162.46875 67.519531 162.644531 L 67.796875 162.769531 C 68.089844 162.902344 68.371094 163.054688 68.648438 163.21875 C 68.789062 163.300781 68.933594 163.390625 69.074219 163.484375 C 69.214844 163.578125 69.332031 163.648438 69.445312 163.734375 C 69.964844 164.109375 70.445312 164.523438 70.890625 164.980469 C 71 165.089844 71.105469 165.207031 71.210938 165.324219 C 71.316406 165.441406 71.421875 165.566406 71.523438 165.695312 L 71.789062 166.03125 C 71.890625 166.167969 71.988281 166.308594 72.082031 166.445312 L 72.082031 166.464844 C 72.460938 167.027344 72.78125 167.621094 73.042969 168.25 L 73.144531 168.484375 L 73.230469 168.726562 C 73.261719 168.796875 73.289062 168.871094 73.3125 168.945312 L 73.382812 169.164062 C 73.382812 169.195312 73.40625 169.234375 73.421875 169.273438 C 73.460938 169.417969 73.503906 169.570312 73.546875 169.722656 C 73.664062 170.1875 73.75 170.664062 73.804688 171.144531 C 73.863281 171.542969 73.894531 171.945312 73.902344 172.351562 Z M 73.902344 172.351562 "/><path style=" stroke:none;fill-rule:nonzero;fill:#fd4a2c;fill-opacity:1;" d="M 72.109375 166.453125 L 24.195312 166.453125 C 24.675781 165.730469 25.238281 165.082031 25.882812 164.5 C 26.523438 163.917969 27.230469 163.421875 27.992188 163.011719 C 28.757812 162.601562 29.558594 162.292969 30.402344 162.082031 C 31.242188 161.871094 32.09375 161.765625 32.960938 161.765625 L 63.332031 161.765625 C 64.199219 161.765625 65.050781 161.871094 65.894531 162.082031 C 66.734375 162.292969 67.539062 162.601562 68.304688 163.007812 C 69.070312 163.417969 69.773438 163.914062 70.417969 164.496094 C 71.0625 165.078125 71.625 165.730469 72.109375 166.453125 Z M 72.109375 166.453125 "/><path style=" stroke:none;fill-rule:nonzero;fill:#fd4a2c;fill-opacity:1;" d="M 73.832031 171.136719 L 22.46875 171.136719 C 22.660156 169.433594 23.238281 167.871094 24.195312 166.453125 L 72.109375 166.453125 C 73.066406 167.871094 73.644531 169.433594 73.832031 171.136719 Z M 73.832031 171.136719 "/><path style=" stroke:none;fill-rule:nonzero;fill:#fd4a2c;fill-opacity:1;" d="M 73.90625 172.351562 L 73.90625 175.816406 L 56.34375 175.816406 L 56.34375 174.90625 L 39.957031 174.90625 L 39.957031 175.816406 L 22.398438 175.816406 L 22.398438 172.351562 C 22.398438 171.941406 22.421875 171.535156 22.46875 171.132812 L 73.824219 171.132812 C 73.875 171.535156 73.902344 171.941406 73.90625 172.351562 Z M 73.90625 172.351562 "/><path style=" stroke:none;fill-rule:nonzero;fill:#fd4a2c;fill-opacity:1;" d="M 22.398438 175.816406 L 39.960938 175.816406 L 39.960938 180.503906 L 22.398438 180.503906 Z M 22.398438 175.816406 "/><path style=" stroke:none;fill-rule:nonzero;fill:#fd4a2c;fill-opacity:1;" d="M 56.34375 175.816406 L 73.90625 175.816406 L 73.90625 180.503906 L 56.34375 180.503906 Z M 56.34375 175.816406 "/><path style=" stroke:none;fill-rule:nonzero;fill:#fd4a2c;fill-opacity:1;" d="M 22.398438 180.503906 L 39.960938 180.503906 L 39.960938 185.1875 L 22.398438 185.1875 Z M 22.398438 180.503906 "/><path style=" stroke:none;fill-rule:nonzero;fill:#fd4a2c;fill-opacity:1;" d="M 56.34375 180.503906 L 73.90625 180.503906 L 73.90625 185.1875 L 56.34375 185.1875 Z M 56.34375 180.503906 "/></g></svg>