<svg xmlns="http://www.w3.org/2000/svg" xmlns:xlink="http://www.w3.org/1999/xlink" width="500" zoomAndPan="magnify" viewBox="0 0 375 374.999991" height="500" preserveAspectRatio="xMidYMid meet" version="1.2"><defs><clipPath id="5ae7dd8d18"><path d="M 226 159 L 256 159 L 256 205 L 226 205 Z M 226 159 "/></clipPath><clipPath id="9668516d8f"><path d="M 255.113281 203.960938 C 255.113281 204.164062 255.03125 204.359375 254.96875 204.65625 L 246.957031 204.65625 C 246.957031 204.003906 246.964844 203.402344 246.957031 202.804688 C 246.863281 196.679688 246.851562 190.550781 246.644531 184.429688 C 246.535156 181.199219 245.046875 179.378906 242.601562 178.84375 C 239.925781 178.253906 237.277344 179.507812 235.730469 182.058594 C 234.398438 184.25 234.304688 186.703125 234.273438 189.136719 C 234.210938 193.707031 234.242188 198.28125 234.238281 202.851562 C 234.234375 203.414062 234.238281 203.980469 234.238281 204.648438 L 226.113281 204.648438 L 226.113281 159.460938 L 234.199219 159.460938 L 234.199219 175.128906 C 235.195312 174.449219 235.929688 173.90625 236.703125 173.417969 C 241.507812 170.382812 246.875 170.378906 250.90625 173.328125 C 253.75 175.410156 254.992188 178.339844 255.054688 181.679688 C 255.191406 189.101562 255.113281 196.53125 255.113281 203.960938 Z M 255.113281 203.960938 "/></clipPath><clipPath id="05945a6cff"><path d="M 202 160 L 221 160 L 221 205 L 202 205 Z M 202 160 "/></clipPath><clipPath id="00d7ab7a41"><path d="M 220.132812 175.859375 C 220.164062 176.839844 220.140625 177.816406 220.140625 179.023438 L 215.316406 179.023438 C 215.277344 179.84375 215.226562 180.449219 215.226562 181.054688 C 215.21875 188.328125 215.179688 195.597656 215.257812 202.867188 C 215.273438 204.410156 214.785156 204.835938 213.3125 204.75 C 211.296875 204.632812 209.265625 204.722656 207.027344 204.722656 L 207.027344 179.082031 C 205.902344 179.082031 204.976562 179.03125 204.0625 179.09375 C 203.070312 179.164062 202.640625 178.824219 202.6875 177.777344 C 202.75 176.273438 202.746094 174.765625 202.6875 173.261719 C 202.648438 172.238281 203.074219 171.929688 204.066406 171.90625 C 206.972656 171.839844 206.96875 171.804688 206.96875 168.898438 L 206.96875 160.011719 L 215.222656 160.011719 L 215.222656 163.28125 C 215.222656 165.71875 215.246094 168.164062 215.210938 170.601562 C 215.199219 171.484375 215.410156 171.949219 216.417969 171.941406 C 217.597656 171.933594 219.304688 171.648438 219.820312 172.277344 C 220.132812 172.660156 220.199219 173.246094 220.195312 173.894531 C 220.191406 174.542969 220.113281 175.242188 220.132812 175.859375 Z M 220.132812 175.859375 "/></clipPath><clipPath id="c738db58f0"><path d="M 167 171 L 197 171 L 197 206 L 167 206 Z M 167 171 "/></clipPath><clipPath id="fc27524e48"><path d="M 196.175781 172.832031 C 196.027344 180.195312 196.234375 187.601562 195.492188 194.910156 C 194.859375 201.117188 190.050781 205.011719 183.773438 205.460938 C 181.671875 205.609375 179.476562 205.496094 177.421875 205.054688 C 171.734375 203.824219 167.972656 199.105469 167.695312 192.667969 C 167.484375 187.8125 167.460938 182.949219 167.410156 178.085938 C 167.394531 176.457031 167.375 174.828125 167.34375 173.195312 C 167.324219 172.253906 167.667969 171.902344 168.609375 171.921875 C 170.535156 171.960938 172.460938 171.980469 174.386719 171.914062 C 175.480469 171.878906 175.8125 172.28125 175.804688 173.359375 C 175.765625 178.660156 175.761719 183.960938 175.824219 189.253906 C 175.84375 190.75 175.980469 192.277344 176.339844 193.722656 C 177.050781 196.574219 179.234375 197.980469 182.328125 197.804688 C 185.210938 197.640625 187.21875 195.875 187.632812 193.035156 C 187.8125 191.804688 187.914062 190.550781 187.921875 189.3125 C 187.957031 184.167969 187.941406 179.027344 187.945312 173.882812 L 187.945312 171.953125 C 190.59375 171.953125 192.980469 171.921875 195.363281 171.992188 C 195.65625 172 196.179688 172.542969 196.175781 172.832031 Z M 196.175781 172.832031 "/></clipPath><clipPath id="337ae8b8c5"><path d="M 123 171 L 158 171 L 158 206 L 123 206 Z M 123 171 "/></clipPath><clipPath id="756b1b3362"><path d="M 157.3125 172.363281 C 156.375 171.535156 154.285156 171.960938 152.691406 171.941406 C 149.550781 171.902344 149.550781 171.929688 149.136719 175.195312 C 148.484375 174.695312 148.003906 174.324219 147.515625 173.957031 C 142.777344 170.402344 136.253906 170.160156 131.257812 173.359375 C 122.945312 178.683594 121.039062 191.582031 127.332031 199.546875 C 133.027344 206.746094 142.554688 207.382812 148.425781 202.140625 C 148.605469 201.980469 148.828125 201.871094 149.304688 201.554688 C 149.304688 202.46875 149.222656 203.132812 149.339844 203.765625 C 149.40625 204.121094 149.800781 204.679688 150.058594 204.6875 C 152.539062 204.757812 155.019531 204.726562 157.660156 204.726562 L 157.660156 202.671875 C 157.660156 194.054688 157.667969 185.4375 157.648438 176.816406 C 157.648438 175.273438 158.117188 173.066406 157.3125 172.363281 Z M 138.546875 197.707031 C 133.980469 196.582031 131.34375 191.96875 132.082031 186.382812 C 132.667969 181.941406 136.441406 178.6875 140.914062 178.765625 C 146.121094 178.851562 149.742188 182.875 149.65625 188.46875 C 149.558594 194.988281 144.527344 199.175781 138.546875 197.707031 Z M 138.546875 197.707031 "/></clipPath><clipPath id="cc62ed9357"><path d="M 31 156 L 84 156 L 84 208 L 31 208 Z M 31 156 "/></clipPath><clipPath id="e973efc33e"><path d="M 31.433594 182.101562 C 31.421875 167.78125 42.972656 156.246094 57.316406 156.261719 C 71.558594 156.277344 83.074219 167.804688 83.089844 182.054688 C 83.105469 196.359375 71.480469 207.96875 57.207031 207.910156 C 42.925781 207.847656 31.445312 196.355469 31.433594 182.101562 Z M 56.882812 199.503906 C 58.210938 199.273438 59.203125 199.195312 60.140625 198.917969 C 63.625 197.898438 64.816406 195.878906 63.992188 192.367188 C 62.957031 187.972656 61.886719 183.589844 60.777344 179.214844 C 60.5625 178.363281 60.617188 177.859375 61.398438 177.257812 C 64.808594 174.621094 65.171875 170.019531 62.316406 166.976562 C 59.578125 164.0625 54.90625 164.070312 52.152344 166.992188 C 49.304688 170.011719 49.683594 174.632812 53.09375 177.265625 C 53.886719 177.871094 53.914062 178.386719 53.703125 179.222656 C 52.558594 183.75 51.441406 188.285156 50.347656 192.824219 C 49.703125 195.496094 50.476562 197.230469 53.007812 198.371094 C 54.3125 198.957031 55.769531 199.1875 56.882812 199.503906 Z M 56.882812 199.503906 "/></clipPath><linearGradient x1="110.424084" gradientTransform="matrix(0.390369,0,0,0.389648,-12.217097,82.081538)" y1="255.22502" x2="245.558523" gradientUnits="userSpaceOnUse" y2="258.069769" id="6f99b16122"><stop style="stop-color:#354aa0;stop-opacity:1;" offset="0"/><stop style="stop-color:#344aa0;stop-opacity:1;" offset="0.015625"/><stop style="stop-color:#344a9f;stop-opacity:1;" offset="0.0206691"/><stop style="stop-color:#344a9f;stop-opacity:1;" offset="0.03125"/><stop style="stop-color:#344a9e;stop-opacity:1;" offset="0.046875"/><stop style="stop-color:#334a9d;stop-opacity:1;" offset="0.0625"/><stop style="stop-color:#33499d;stop-opacity:1;" offset="0.078125"/><stop style="stop-color:#33499c;stop-opacity:1;" offset="0.09375"/><stop style="stop-color:#32499b;stop-opacity:1;" offset="0.109375"/><stop style="stop-color:#32499a;stop-opacity:1;" offset="0.125"/><stop style="stop-color:#32489a;stop-opacity:1;" offset="0.140625"/><stop style="stop-color:#314899;stop-opacity:1;" offset="0.15625"/><stop style="stop-color:#314898;stop-opacity:1;" offset="0.171875"/><stop style="stop-color:#304897;stop-opacity:1;" offset="0.1875"/><stop style="stop-color:#304797;stop-opacity:1;" offset="0.203125"/><stop style="stop-color:#304796;stop-opacity:1;" offset="0.21875"/><stop style="stop-color:#2f4795;stop-opacity:1;" offset="0.234375"/><stop style="stop-color:#2f4794;stop-opacity:1;" offset="0.25"/><stop style="stop-color:#2f4694;stop-opacity:1;" offset="0.265625"/><stop style="stop-color:#2e4693;stop-opacity:1;" offset="0.28125"/><stop style="stop-color:#2e4692;stop-opacity:1;" offset="0.296875"/><stop style="stop-color:#2e4591;stop-opacity:1;" offset="0.3125"/><stop style="stop-color:#2d4591;stop-opacity:1;" offset="0.328125"/><stop style="stop-color:#2d4590;stop-opacity:1;" offset="0.34375"/><stop style="stop-color:#2d458f;stop-opacity:1;" offset="0.359375"/><stop style="stop-color:#2c448e;stop-opacity:1;" offset="0.375"/><stop style="stop-color:#2c448e;stop-opacity:1;" offset="0.390625"/><stop style="stop-color:#2b448d;stop-opacity:1;" offset="0.40625"/><stop style="stop-color:#2b448c;stop-opacity:1;" offset="0.421875"/><stop style="stop-color:#2b438b;stop-opacity:1;" offset="0.4375"/><stop style="stop-color:#2a438b;stop-opacity:1;" offset="0.453125"/><stop style="stop-color:#2a438a;stop-opacity:1;" offset="0.46875"/><stop style="stop-color:#2a4389;stop-opacity:1;" offset="0.484375"/><stop style="stop-color:#294288;stop-opacity:1;" offset="0.5"/><stop style="stop-color:#294288;stop-opacity:1;" offset="0.515625"/><stop style="stop-color:#294287;stop-opacity:1;" offset="0.53125"/><stop style="stop-color:#284286;stop-opacity:1;" offset="0.546875"/><stop style="stop-color:#284185;stop-opacity:1;" offset="0.5625"/><stop style="stop-color:#284184;stop-opacity:1;" offset="0.578125"/><stop style="stop-color:#274184;stop-opacity:1;" offset="0.59375"/><stop style="stop-color:#274183;stop-opacity:1;" offset="0.609375"/><stop style="stop-color:#264082;stop-opacity:1;" offset="0.625"/><stop style="stop-color:#264081;stop-opacity:1;" offset="0.640625"/><stop style="stop-color:#264081;stop-opacity:1;" offset="0.65625"/><stop style="stop-color:#254080;stop-opacity:1;" offset="0.671875"/><stop style="stop-color:#253f7f;stop-opacity:1;" offset="0.6875"/><stop style="stop-color:#253f7e;stop-opacity:1;" offset="0.703125"/><stop style="stop-color:#243f7e;stop-opacity:1;" offset="0.71875"/><stop style="stop-color:#243f7d;stop-opacity:1;" offset="0.734375"/><stop style="stop-color:#243e7c;stop-opacity:1;" offset="0.75"/><stop style="stop-color:#233e7b;stop-opacity:1;" offset="0.765625"/><stop style="stop-color:#233e7b;stop-opacity:1;" offset="0.78125"/><stop style="stop-color:#233e7a;stop-opacity:1;" offset="0.796875"/><stop style="stop-color:#223d79;stop-opacity:1;" offset="0.8125"/><stop style="stop-color:#223d78;stop-opacity:1;" offset="0.828125"/><stop style="stop-color:#213d78;stop-opacity:1;" offset="0.84375"/><stop style="stop-color:#213d77;stop-opacity:1;" offset="0.859375"/><stop style="stop-color:#213c76;stop-opacity:1;" offset="0.875"/><stop style="stop-color:#203c75;stop-opacity:1;" offset="0.890625"/><stop style="stop-color:#203c75;stop-opacity:1;" offset="0.90625"/><stop style="stop-color:#203c74;stop-opacity:1;" offset="0.921875"/><stop style="stop-color:#1f3b73;stop-opacity:1;" offset="0.9375"/><stop style="stop-color:#1f3b72;stop-opacity:1;" offset="0.953125"/><stop style="stop-color:#1f3b72;stop-opacity:1;" offset="0.96875"/><stop style="stop-color:#1e3b71;stop-opacity:1;" offset="0.979331"/><stop style="stop-color:#1e3a70;stop-opacity:1;" offset="0.984375"/><stop style="stop-color:#1e3a70;stop-opacity:1;" offset="1"/></linearGradient><clipPath id="24a8e45e71"><path d="M 18 147 L 94 147 L 94 221 L 18 221 Z M 18 147 "/></clipPath><clipPath id="1d513a399b"><path d="M 18.21875 182.65625 C 18.738281 166.683594 25.355469 155.226562 38.726562 147.804688 C 40.125 147.027344 41.574219 146.671875 42.945312 147.808594 C 44.941406 149.460938 44.789062 151.953125 42.632812 153.449219 C 40.546875 154.898438 38.230469 156.097656 36.363281 157.792969 C 26.410156 166.847656 22.957031 178.050781 26.597656 190.972656 C 30.113281 203.449219 38.894531 210.753906 51.441406 213.257812 C 65.214844 216.003906 78.769531 209.167969 85.429688 196.628906 C 85.722656 196.082031 85.984375 195.511719 86.269531 194.957031 C 87.332031 192.898438 89.160156 192.132812 91.027344 192.964844 C 92.890625 193.792969 93.523438 195.683594 92.59375 197.832031 C 90.085938 203.621094 86.335938 208.457031 81.355469 212.34375 C 58.40625 230.242188 25.402344 218.496094 19.222656 190.195312 C 18.628906 187.46875 18.476562 184.652344 18.21875 182.65625 Z M 18.21875 182.65625 "/></clipPath><linearGradient x1="75.990803" gradientTransform="matrix(0.390369,0,0,0.389648,-12.217097,82.081538)" y1="259.787505" x2="273.318221" gradientUnits="userSpaceOnUse" y2="263.94151" id="a878f67b27"><stop style="stop-color:#3a4fac;stop-opacity:1;" offset="0"/><stop style="stop-color:#3a4eac;stop-opacity:1;" offset="0.0078125"/><stop style="stop-color:#3a4eac;stop-opacity:1;" offset="0.015625"/><stop style="stop-color:#3a4eab;stop-opacity:1;" offset="0.02287"/><stop style="stop-color:#3a4eab;stop-opacity:1;" offset="0.0234375"/><stop style="stop-color:#394eaa;stop-opacity:1;" offset="0.03125"/><stop style="stop-color:#394eaa;stop-opacity:1;" offset="0.0390625"/><stop style="stop-color:#394ea9;stop-opacity:1;" offset="0.046875"/><stop style="stop-color:#394da9;stop-opacity:1;" offset="0.0546875"/><stop style="stop-color:#384da8;stop-opacity:1;" offset="0.0625"/><stop style="stop-color:#384da8;stop-opacity:1;" offset="0.0703125"/><stop style="stop-color:#384da7;stop-opacity:1;" offset="0.078125"/><stop style="stop-color:#384da7;stop-opacity:1;" offset="0.0859375"/><stop style="stop-color:#374ca6;stop-opacity:1;" offset="0.09375"/><stop style="stop-color:#374ca5;stop-opacity:1;" offset="0.101562"/><stop style="stop-color:#374ca5;stop-opacity:1;" offset="0.109375"/><stop style="stop-color:#374ca4;stop-opacity:1;" offset="0.117187"/><stop style="stop-color:#364ca4;stop-opacity:1;" offset="0.125"/><stop style="stop-color:#364ba3;stop-opacity:1;" offset="0.132812"/><stop style="stop-color:#364ba3;stop-opacity:1;" offset="0.140625"/><stop style="stop-color:#364ba2;stop-opacity:1;" offset="0.148438"/><stop style="stop-color:#354ba2;stop-opacity:1;" offset="0.15625"/><stop style="stop-color:#354ba1;stop-opacity:1;" offset="0.164062"/><stop style="stop-color:#354ba1;stop-opacity:1;" offset="0.171875"/><stop style="stop-color:#354aa0;stop-opacity:1;" offset="0.179687"/><stop style="stop-color:#344a9f;stop-opacity:1;" offset="0.1875"/><stop style="stop-color:#344a9f;stop-opacity:1;" offset="0.195312"/><stop style="stop-color:#344a9e;stop-opacity:1;" offset="0.203125"/><stop style="stop-color:#334a9e;stop-opacity:1;" offset="0.210937"/><stop style="stop-color:#33499d;stop-opacity:1;" offset="0.21875"/><stop style="stop-color:#33499d;stop-opacity:1;" offset="0.226562"/><stop style="stop-color:#33499c;stop-opacity:1;" offset="0.234375"/><stop style="stop-color:#32499c;stop-opacity:1;" offset="0.242187"/><stop style="stop-color:#32499b;stop-opacity:1;" offset="0.25"/><stop style="stop-color:#32499a;stop-opacity:1;" offset="0.257812"/><stop style="stop-color:#32489a;stop-opacity:1;" offset="0.265625"/><stop style="stop-color:#314899;stop-opacity:1;" offset="0.273437"/><stop style="stop-color:#314899;stop-opacity:1;" offset="0.28125"/><stop style="stop-color:#314898;stop-opacity:1;" offset="0.289062"/><stop style="stop-color:#314898;stop-opacity:1;" offset="0.296875"/><stop style="stop-color:#304797;stop-opacity:1;" offset="0.304687"/><stop style="stop-color:#304797;stop-opacity:1;" offset="0.3125"/><stop style="stop-color:#304796;stop-opacity:1;" offset="0.320312"/><stop style="stop-color:#304795;stop-opacity:1;" offset="0.328125"/><stop style="stop-color:#2f4795;stop-opacity:1;" offset="0.335937"/><stop style="stop-color:#2f4794;stop-opacity:1;" offset="0.34375"/><stop style="stop-color:#2f4694;stop-opacity:1;" offset="0.351562"/><stop style="stop-color:#2f4693;stop-opacity:1;" offset="0.359375"/><stop style="stop-color:#2e4693;stop-opacity:1;" offset="0.367187"/><stop style="stop-color:#2e4692;stop-opacity:1;" offset="0.375"/><stop style="stop-color:#2e4692;stop-opacity:1;" offset="0.382812"/><stop style="stop-color:#2d4591;stop-opacity:1;" offset="0.390625"/><stop style="stop-color:#2d4590;stop-opacity:1;" offset="0.398438"/><stop style="stop-color:#2d4590;stop-opacity:1;" offset="0.40625"/><stop style="stop-color:#2d458f;stop-opacity:1;" offset="0.414062"/><stop style="stop-color:#2c458f;stop-opacity:1;" offset="0.421875"/><stop style="stop-color:#2c448e;stop-opacity:1;" offset="0.429687"/><stop style="stop-color:#2c448e;stop-opacity:1;" offset="0.4375"/><stop style="stop-color:#2c448d;stop-opacity:1;" offset="0.445312"/><stop style="stop-color:#2b448d;stop-opacity:1;" offset="0.453125"/><stop style="stop-color:#2b448c;stop-opacity:1;" offset="0.460937"/><stop style="stop-color:#2b448c;stop-opacity:1;" offset="0.46875"/><stop style="stop-color:#2b438b;stop-opacity:1;" offset="0.476562"/><stop style="stop-color:#2a438a;stop-opacity:1;" offset="0.484375"/><stop style="stop-color:#2a438a;stop-opacity:1;" offset="0.492187"/><stop style="stop-color:#2a4389;stop-opacity:1;" offset="0.5"/><stop style="stop-color:#2a4389;stop-opacity:1;" offset="0.507812"/><stop style="stop-color:#294288;stop-opacity:1;" offset="0.515625"/><stop style="stop-color:#294288;stop-opacity:1;" offset="0.523437"/><stop style="stop-color:#294287;stop-opacity:1;" offset="0.53125"/><stop style="stop-color:#294287;stop-opacity:1;" offset="0.539062"/><stop style="stop-color:#284286;stop-opacity:1;" offset="0.546875"/><stop style="stop-color:#284285;stop-opacity:1;" offset="0.554688"/><stop style="stop-color:#284185;stop-opacity:1;" offset="0.5625"/><stop style="stop-color:#274184;stop-opacity:1;" offset="0.570312"/><stop style="stop-color:#274184;stop-opacity:1;" offset="0.578125"/><stop style="stop-color:#274183;stop-opacity:1;" offset="0.585938"/><stop style="stop-color:#274183;stop-opacity:1;" offset="0.59375"/><stop style="stop-color:#264082;stop-opacity:1;" offset="0.601562"/><stop style="stop-color:#264082;stop-opacity:1;" offset="0.609375"/><stop style="stop-color:#264081;stop-opacity:1;" offset="0.617187"/><stop style="stop-color:#264080;stop-opacity:1;" offset="0.625"/><stop style="stop-color:#254080;stop-opacity:1;" offset="0.632812"/><stop style="stop-color:#253f7f;stop-opacity:1;" offset="0.640625"/><stop style="stop-color:#253f7f;stop-opacity:1;" offset="0.648437"/><stop style="stop-color:#253f7e;stop-opacity:1;" offset="0.65625"/><stop style="stop-color:#243f7e;stop-opacity:1;" offset="0.664062"/><stop style="stop-color:#243f7d;stop-opacity:1;" offset="0.671875"/><stop style="stop-color:#243f7d;stop-opacity:1;" offset="0.679688"/><stop style="stop-color:#243e7c;stop-opacity:1;" offset="0.6875"/><stop style="stop-color:#233e7c;stop-opacity:1;" offset="0.695312"/><stop style="stop-color:#233e7b;stop-opacity:1;" offset="0.703125"/><stop style="stop-color:#233e7a;stop-opacity:1;" offset="0.710938"/><stop style="stop-color:#233e7a;stop-opacity:1;" offset="0.71875"/><stop style="stop-color:#223d79;stop-opacity:1;" offset="0.726562"/><stop style="stop-color:#223d79;stop-opacity:1;" offset="0.734375"/><stop style="stop-color:#223d78;stop-opacity:1;" offset="0.742187"/><stop style="stop-color:#223d78;stop-opacity:1;" offset="0.75"/><stop style="stop-color:#213d77;stop-opacity:1;" offset="0.757813"/><stop style="stop-color:#213d77;stop-opacity:1;" offset="0.765625"/><stop style="stop-color:#213c76;stop-opacity:1;" offset="0.773438"/><stop style="stop-color:#203c75;stop-opacity:1;" offset="0.78125"/><stop style="stop-color:#203c75;stop-opacity:1;" offset="0.789062"/><stop style="stop-color:#203c74;stop-opacity:1;" offset="0.796875"/><stop style="stop-color:#203c74;stop-opacity:1;" offset="0.804688"/><stop style="stop-color:#1f3b73;stop-opacity:1;" offset="0.8125"/><stop style="stop-color:#1f3b73;stop-opacity:1;" offset="0.820312"/><stop style="stop-color:#1f3b72;stop-opacity:1;" offset="0.828125"/><stop style="stop-color:#1f3b72;stop-opacity:1;" offset="0.835938"/><stop style="stop-color:#1e3b71;stop-opacity:1;" offset="0.84375"/><stop style="stop-color:#1e3b70;stop-opacity:1;" offset="0.851562"/><stop style="stop-color:#1e3a70;stop-opacity:1;" offset="0.859375"/><stop style="stop-color:#1e3a6f;stop-opacity:1;" offset="0.867188"/><stop style="stop-color:#1d3a6f;stop-opacity:1;" offset="0.875"/><stop style="stop-color:#1d3a6e;stop-opacity:1;" offset="0.882812"/><stop style="stop-color:#1d3a6e;stop-opacity:1;" offset="0.890625"/><stop style="stop-color:#1d396d;stop-opacity:1;" offset="0.898438"/><stop style="stop-color:#1c396d;stop-opacity:1;" offset="0.90625"/><stop style="stop-color:#1c396c;stop-opacity:1;" offset="0.914062"/><stop style="stop-color:#1c396b;stop-opacity:1;" offset="0.921875"/><stop style="stop-color:#1c396b;stop-opacity:1;" offset="0.929688"/><stop style="stop-color:#1b386a;stop-opacity:1;" offset="0.9375"/><stop style="stop-color:#1b386a;stop-opacity:1;" offset="0.945312"/><stop style="stop-color:#1b3869;stop-opacity:1;" offset="0.953125"/><stop style="stop-color:#1a3869;stop-opacity:1;" offset="0.960938"/><stop style="stop-color:#1a3868;stop-opacity:1;" offset="0.96875"/><stop style="stop-color:#1a3868;stop-opacity:1;" offset="0.976562"/><stop style="stop-color:#1a3767;stop-opacity:1;" offset="0.97713"/><stop style="stop-color:#1a3767;stop-opacity:1;" offset="0.984375"/><stop style="stop-color:#193767;stop-opacity:1;" offset="0.992188"/><stop style="stop-color:#193766;stop-opacity:1;" offset="1"/></linearGradient><clipPath id="b6fcd941b2"><path d="M 5 131 L 57 131 L 57 220 L 5 220 Z M 5 131 "/></clipPath><clipPath id="707dd01d6a"><path d="M 5.339844 180.675781 C 5.625 168.753906 9.945312 157.636719 18.277344 148.128906 C 25.75 139.605469 35.128906 134.195312 46.21875 131.863281 C 48.625 131.355469 51.179688 131.40625 53.664062 131.433594 C 55.726562 131.457031 56.414062 132.171875 56.570312 133.761719 C 56.753906 135.628906 55.832031 137.140625 54.089844 137.570312 C 52.886719 137.871094 51.632812 137.988281 50.398438 138.171875 C 31.332031 141.03125 16.296875 155.28125 13.003906 174.234375 C 10.5625 188.296875 14.273438 200.886719 23.59375 211.769531 C 24.066406 212.320312 24.589844 212.832031 25.042969 213.402344 C 26.351562 215.054688 26.203125 216.894531 24.671875 218.253906 C 23.261719 219.503906 21.570312 219.453125 20.070312 217.988281 C 15.152344 213.195312 11.644531 207.476562 9.003906 201.175781 C 6.34375 194.847656 5.519531 188.183594 5.339844 180.675781 Z M 5.339844 180.675781 "/></clipPath><linearGradient x1="42.644674" gradientTransform="matrix(0.390369,0,0,0.389648,-12.217097,82.081538)" y1="237.394915" x2="179.046453" gradientUnits="userSpaceOnUse" y2="240.266349" id="7932e2abb6"><stop style="stop-color:#3e51b4;stop-opacity:1;" offset="0"/><stop style="stop-color:#3e51b4;stop-opacity:1;" offset="0.0348977"/><stop style="stop-color:#3e51b4;stop-opacity:1;" offset="0.0625"/><stop style="stop-color:#3e51b4;stop-opacity:1;" offset="0.09375"/><stop style="stop-color:#3e51b4;stop-opacity:1;" offset="0.109375"/><stop style="stop-color:#3d51b3;stop-opacity:1;" offset="0.125"/><stop style="stop-color:#3d50b2;stop-opacity:1;" offset="0.140625"/><stop style="stop-color:#3d50b1;stop-opacity:1;" offset="0.15625"/><stop style="stop-color:#3c50b0;stop-opacity:1;" offset="0.171875"/><stop style="stop-color:#3c50b0;stop-opacity:1;" offset="0.1875"/><stop style="stop-color:#3c4faf;stop-opacity:1;" offset="0.203125"/><stop style="stop-color:#3b4fae;stop-opacity:1;" offset="0.21875"/><stop style="stop-color:#3b4fad;stop-opacity:1;" offset="0.234375"/><stop style="stop-color:#3a4fad;stop-opacity:1;" offset="0.25"/><stop style="stop-color:#3a4eac;stop-opacity:1;" offset="0.265625"/><stop style="stop-color:#3a4eab;stop-opacity:1;" offset="0.28125"/><stop style="stop-color:#394eaa;stop-opacity:1;" offset="0.296875"/><stop style="stop-color:#394eaa;stop-opacity:1;" offset="0.3125"/><stop style="stop-color:#394da9;stop-opacity:1;" offset="0.328125"/><stop style="stop-color:#384da8;stop-opacity:1;" offset="0.34375"/><stop style="stop-color:#384da7;stop-opacity:1;" offset="0.359375"/><stop style="stop-color:#384da7;stop-opacity:1;" offset="0.375"/><stop style="stop-color:#374ca6;stop-opacity:1;" offset="0.390625"/><stop style="stop-color:#374ca5;stop-opacity:1;" offset="0.40625"/><stop style="stop-color:#374ca4;stop-opacity:1;" offset="0.421875"/><stop style="stop-color:#364ca4;stop-opacity:1;" offset="0.4375"/><stop style="stop-color:#364ba3;stop-opacity:1;" offset="0.453125"/><stop style="stop-color:#354ba2;stop-opacity:1;" offset="0.46875"/><stop style="stop-color:#354ba1;stop-opacity:1;" offset="0.484375"/><stop style="stop-color:#354ba0;stop-opacity:1;" offset="0.5"/><stop style="stop-color:#344aa0;stop-opacity:1;" offset="0.515625"/><stop style="stop-color:#344a9f;stop-opacity:1;" offset="0.53125"/><stop style="stop-color:#344a9e;stop-opacity:1;" offset="0.546875"/><stop style="stop-color:#334a9d;stop-opacity:1;" offset="0.5625"/><stop style="stop-color:#33499d;stop-opacity:1;" offset="0.578125"/><stop style="stop-color:#33499c;stop-opacity:1;" offset="0.59375"/><stop style="stop-color:#32499b;stop-opacity:1;" offset="0.609375"/><stop style="stop-color:#32499a;stop-opacity:1;" offset="0.625"/><stop style="stop-color:#31489a;stop-opacity:1;" offset="0.640625"/><stop style="stop-color:#314899;stop-opacity:1;" offset="0.65625"/><stop style="stop-color:#314898;stop-opacity:1;" offset="0.671875"/><stop style="stop-color:#304797;stop-opacity:1;" offset="0.6875"/><stop style="stop-color:#304797;stop-opacity:1;" offset="0.703125"/><stop style="stop-color:#304796;stop-opacity:1;" offset="0.71875"/><stop style="stop-color:#2f4795;stop-opacity:1;" offset="0.734375"/><stop style="stop-color:#2f4694;stop-opacity:1;" offset="0.75"/><stop style="stop-color:#2f4693;stop-opacity:1;" offset="0.765625"/><stop style="stop-color:#2e4693;stop-opacity:1;" offset="0.78125"/><stop style="stop-color:#2e4692;stop-opacity:1;" offset="0.796875"/><stop style="stop-color:#2e4591;stop-opacity:1;" offset="0.8125"/><stop style="stop-color:#2d4590;stop-opacity:1;" offset="0.828125"/><stop style="stop-color:#2d4590;stop-opacity:1;" offset="0.84375"/><stop style="stop-color:#2c458f;stop-opacity:1;" offset="0.859375"/><stop style="stop-color:#2c448e;stop-opacity:1;" offset="0.875"/><stop style="stop-color:#2c448d;stop-opacity:1;" offset="0.890625"/><stop style="stop-color:#2b448d;stop-opacity:1;" offset="0.90625"/><stop style="stop-color:#2b448c;stop-opacity:1;" offset="0.921875"/><stop style="stop-color:#2b438b;stop-opacity:1;" offset="0.9375"/><stop style="stop-color:#2a438a;stop-opacity:1;" offset="0.953125"/><stop style="stop-color:#2a438a;stop-opacity:1;" offset="0.965102"/><stop style="stop-color:#2a4389;stop-opacity:1;" offset="0.96875"/><stop style="stop-color:#2a4389;stop-opacity:1;" offset="0.984375"/><stop style="stop-color:#294288;stop-opacity:1;" offset="1"/></linearGradient><clipPath id="1bc241243c"><path d="M 57 161 L 109 161 L 109 233 L 57 233 Z M 57 161 "/></clipPath><clipPath id="c2e2153ed0"><path d="M 108.710938 184.792969 C 108.796875 205.480469 91.84375 226.835938 69.445312 231.816406 C 66.820312 232.398438 64.121094 232.773438 61.4375 232.878906 C 59.023438 232.972656 57.683594 231.578125 57.664062 229.625 C 57.644531 227.6875 58.972656 226.363281 61.28125 226.089844 C 66.109375 225.523438 70.855469 224.546875 75.265625 222.476562 C 90.496094 215.324219 99.234375 203.351562 101.453125 186.722656 C 102.378906 179.808594 101.410156 173.058594 98.914062 166.539062 C 98.132812 164.496094 98.941406 162.367188 100.816406 161.609375 C 102.726562 160.835938 104.648438 161.796875 105.503906 164.011719 C 107.792969 169.945312 108.699219 176.132812 108.710938 184.792969 Z M 108.710938 184.792969 "/></clipPath><linearGradient x1="177.027985" gradientTransform="matrix(0.390369,0,0,0.389648,-12.217097,82.081538)" y1="293.880098" x2="311.906098" gradientUnits="userSpaceOnUse" y2="296.719966" id="dc511ea81b"><stop style="stop-color:#294288;stop-opacity:1;" offset="0"/><stop style="stop-color:#294288;stop-opacity:1;" offset="0.015625"/><stop style="stop-color:#294287;stop-opacity:1;" offset="0.0288868"/><stop style="stop-color:#284286;stop-opacity:1;" offset="0.03125"/><stop style="stop-color:#284286;stop-opacity:1;" offset="0.046875"/><stop style="stop-color:#284185;stop-opacity:1;" offset="0.0625"/><stop style="stop-color:#284185;stop-opacity:1;" offset="0.078125"/><stop style="stop-color:#274184;stop-opacity:1;" offset="0.09375"/><stop style="stop-color:#274183;stop-opacity:1;" offset="0.109375"/><stop style="stop-color:#274082;stop-opacity:1;" offset="0.125"/><stop style="stop-color:#264082;stop-opacity:1;" offset="0.140625"/><stop style="stop-color:#264081;stop-opacity:1;" offset="0.15625"/><stop style="stop-color:#254080;stop-opacity:1;" offset="0.171875"/><stop style="stop-color:#253f7f;stop-opacity:1;" offset="0.1875"/><stop style="stop-color:#253f7f;stop-opacity:1;" offset="0.203125"/><stop style="stop-color:#243f7e;stop-opacity:1;" offset="0.21875"/><stop style="stop-color:#243f7d;stop-opacity:1;" offset="0.234375"/><stop style="stop-color:#243e7c;stop-opacity:1;" offset="0.25"/><stop style="stop-color:#233e7b;stop-opacity:1;" offset="0.265625"/><stop style="stop-color:#233e7b;stop-opacity:1;" offset="0.28125"/><stop style="stop-color:#233e7a;stop-opacity:1;" offset="0.296875"/><stop style="stop-color:#223d79;stop-opacity:1;" offset="0.3125"/><stop style="stop-color:#223d78;stop-opacity:1;" offset="0.328125"/><stop style="stop-color:#223d78;stop-opacity:1;" offset="0.34375"/><stop style="stop-color:#213d77;stop-opacity:1;" offset="0.359375"/><stop style="stop-color:#213c76;stop-opacity:1;" offset="0.375"/><stop style="stop-color:#203c75;stop-opacity:1;" offset="0.390625"/><stop style="stop-color:#203c75;stop-opacity:1;" offset="0.40625"/><stop style="stop-color:#203c74;stop-opacity:1;" offset="0.421875"/><stop style="stop-color:#1f3b73;stop-opacity:1;" offset="0.4375"/><stop style="stop-color:#1f3b72;stop-opacity:1;" offset="0.453125"/><stop style="stop-color:#1f3b72;stop-opacity:1;" offset="0.46875"/><stop style="stop-color:#1e3b71;stop-opacity:1;" offset="0.484375"/><stop style="stop-color:#1e3a70;stop-opacity:1;" offset="0.5"/><stop style="stop-color:#1e3a6f;stop-opacity:1;" offset="0.515625"/><stop style="stop-color:#1d3a6f;stop-opacity:1;" offset="0.53125"/><stop style="stop-color:#1d3a6e;stop-opacity:1;" offset="0.546875"/><stop style="stop-color:#1d396d;stop-opacity:1;" offset="0.5625"/><stop style="stop-color:#1c396c;stop-opacity:1;" offset="0.578125"/><stop style="stop-color:#1c396c;stop-opacity:1;" offset="0.59375"/><stop style="stop-color:#1b396b;stop-opacity:1;" offset="0.609375"/><stop style="stop-color:#1b386a;stop-opacity:1;" offset="0.625"/><stop style="stop-color:#1b3869;stop-opacity:1;" offset="0.640625"/><stop style="stop-color:#1a3869;stop-opacity:1;" offset="0.65625"/><stop style="stop-color:#1a3868;stop-opacity:1;" offset="0.671875"/><stop style="stop-color:#1a3767;stop-opacity:1;" offset="0.6875"/><stop style="stop-color:#193766;stop-opacity:1;" offset="0.703125"/><stop style="stop-color:#193766;stop-opacity:1;" offset="0.71875"/><stop style="stop-color:#193765;stop-opacity:1;" offset="0.734375"/><stop style="stop-color:#183664;stop-opacity:1;" offset="0.75"/><stop style="stop-color:#183663;stop-opacity:1;" offset="0.765625"/><stop style="stop-color:#183663;stop-opacity:1;" offset="0.78125"/><stop style="stop-color:#173662;stop-opacity:1;" offset="0.796875"/><stop style="stop-color:#173561;stop-opacity:1;" offset="0.8125"/><stop style="stop-color:#173560;stop-opacity:1;" offset="0.828125"/><stop style="stop-color:#163560;stop-opacity:1;" offset="0.84375"/><stop style="stop-color:#16355f;stop-opacity:1;" offset="0.859375"/><stop style="stop-color:#15345e;stop-opacity:1;" offset="0.875"/><stop style="stop-color:#15345d;stop-opacity:1;" offset="0.890625"/><stop style="stop-color:#15345d;stop-opacity:1;" offset="0.90625"/><stop style="stop-color:#14345c;stop-opacity:1;" offset="0.921875"/><stop style="stop-color:#14335b;stop-opacity:1;" offset="0.9375"/><stop style="stop-color:#14335a;stop-opacity:1;" offset="0.953125"/><stop style="stop-color:#13335a;stop-opacity:1;" offset="0.96875"/><stop style="stop-color:#133359;stop-opacity:1;" offset="0.971113"/><stop style="stop-color:#133258;stop-opacity:1;" offset="0.984375"/><stop style="stop-color:#133258;stop-opacity:1;" offset="1"/></linearGradient><clipPath id="b9f09a96f7"><path d="M 67 146 L 96 146 L 96 178 L 67 178 Z M 67 146 "/></clipPath><clipPath id="cd1011a8e6"><path d="M 95.210938 174.226562 C 95.21875 176.230469 94.167969 177.511719 92.402344 177.886719 C 90.761719 178.238281 89.285156 177.511719 88.660156 175.855469 C 87.941406 173.96875 87.460938 171.988281 86.722656 170.113281 C 83.773438 162.640625 78.570312 157.21875 71.449219 153.5625 C 70.804688 153.230469 70.125 152.949219 69.523438 152.550781 C 67.945312 151.496094 67.425781 149.652344 68.191406 148.050781 C 68.945312 146.476562 70.582031 145.699219 72.382812 146.308594 C 73.746094 146.765625 75.0625 147.4375 76.3125 148.164062 C 86.042969 153.851562 92.285156 162.160156 94.984375 173.101562 C 95.097656 173.550781 95.167969 174.011719 95.210938 174.226562 Z M 95.210938 174.226562 "/></clipPath><linearGradient x1="203.153544" gradientTransform="matrix(0.390369,0,0,0.389648,-12.217097,82.081538)" y1="204.42872" x2="276.079216" gradientUnits="userSpaceOnUse" y2="205.9639" id="82d9e4527f"><stop style="stop-color:#253f7f;stop-opacity:1;" offset="0"/><stop style="stop-color:#253f7f;stop-opacity:1;" offset="0.024096"/><stop style="stop-color:#253f7e;stop-opacity:1;" offset="0.03125"/><stop style="stop-color:#253f7e;stop-opacity:1;" offset="0.0625"/><stop style="stop-color:#243f7d;stop-opacity:1;" offset="0.09375"/><stop style="stop-color:#243e7c;stop-opacity:1;" offset="0.125"/><stop style="stop-color:#233e7c;stop-opacity:1;" offset="0.15625"/><stop style="stop-color:#233e7b;stop-opacity:1;" offset="0.1875"/><stop style="stop-color:#233e7a;stop-opacity:1;" offset="0.21875"/><stop style="stop-color:#223d79;stop-opacity:1;" offset="0.25"/><stop style="stop-color:#223d78;stop-opacity:1;" offset="0.28125"/><stop style="stop-color:#213d78;stop-opacity:1;" offset="0.3125"/><stop style="stop-color:#213d77;stop-opacity:1;" offset="0.34375"/><stop style="stop-color:#213c76;stop-opacity:1;" offset="0.375"/><stop style="stop-color:#203c75;stop-opacity:1;" offset="0.40625"/><stop style="stop-color:#203c74;stop-opacity:1;" offset="0.4375"/><stop style="stop-color:#203b73;stop-opacity:1;" offset="0.46875"/><stop style="stop-color:#1f3b73;stop-opacity:1;" offset="0.5"/><stop style="stop-color:#1f3b72;stop-opacity:1;" offset="0.53125"/><stop style="stop-color:#1e3b71;stop-opacity:1;" offset="0.5625"/><stop style="stop-color:#1e3a70;stop-opacity:1;" offset="0.59375"/><stop style="stop-color:#1e3a6f;stop-opacity:1;" offset="0.625"/><stop style="stop-color:#1d3a6f;stop-opacity:1;" offset="0.65625"/><stop style="stop-color:#1d3a6e;stop-opacity:1;" offset="0.6875"/><stop style="stop-color:#1c396d;stop-opacity:1;" offset="0.71875"/><stop style="stop-color:#1c396c;stop-opacity:1;" offset="0.75"/><stop style="stop-color:#1c396b;stop-opacity:1;" offset="0.78125"/><stop style="stop-color:#1b386a;stop-opacity:1;" offset="0.8125"/><stop style="stop-color:#1b386a;stop-opacity:1;" offset="0.84375"/><stop style="stop-color:#1b3869;stop-opacity:1;" offset="0.875"/><stop style="stop-color:#1a3868;stop-opacity:1;" offset="0.90625"/><stop style="stop-color:#1a3767;stop-opacity:1;" offset="0.9375"/><stop style="stop-color:#193766;stop-opacity:1;" offset="0.96875"/><stop style="stop-color:#193766;stop-opacity:1;" offset="0.975904"/><stop style="stop-color:#193765;stop-opacity:1;" offset="1"/></linearGradient></defs><g id="3d2827e5ac"><path style=" stroke:none;fill-rule:nonzero;fill:#3f51b5;fill-opacity:1;" d="M 362.355469 175.40625 C 362.714844 172.050781 362.714844 172.019531 365.839844 172.0625 C 367.378906 172.082031 369.398438 171.6875 370.300781 172.496094 C 371.078125 173.191406 370.628906 175.3125 370.632812 176.800781 C 370.648438 185.417969 370.640625 194.035156 370.640625 202.652344 C 370.640625 204.648438 370.636719 204.652344 368.578125 204.65625 C 367.171875 204.660156 365.765625 204.589844 364.363281 204.675781 C 363.019531 204.757812 362.257812 204.417969 362.476562 202.894531 C 362.53125 202.515625 362.414062 202.109375 362.363281 201.582031 C 362.0625 201.714844 361.851562 201.75 361.722656 201.871094 C 354.675781 208.472656 342.589844 206.144531 338.085938 195.414062 C 335.289062 188.761719 336.882812 180.410156 341.726562 175.554688 C 347.21875 170.046875 355.339844 169.671875 361.363281 174.628906 C 361.628906 174.855469 361.914062 175.0625 362.355469 175.40625 Z M 344.964844 188.242188 C 344.945312 193.019531 347.566406 196.757812 351.648438 197.773438 C 356.519531 198.980469 361.21875 196.175781 362.457031 191.324219 C 363.914062 185.601562 361.191406 180.25 356.1875 179.011719 C 350.113281 177.503906 344.992188 181.71875 344.964844 188.242188 Z M 344.964844 188.242188 "/><path style=" stroke:none;fill-rule:nonzero;fill:#3f51b5;fill-opacity:1;" d="M 329.191406 188.539062 C 329.191406 193.316406 329.140625 198.085938 329.222656 202.863281 C 329.25 204.332031 328.734375 204.765625 327.34375 204.683594 C 325.683594 204.585938 324.015625 204.636719 322.351562 204.667969 C 321.480469 204.683594 321.019531 204.460938 321.023438 203.457031 C 321.050781 193.386719 321.046875 183.316406 321.027344 173.246094 C 321.027344 172.363281 321.386719 172.042969 322.226562 172.054688 C 324.046875 172.074219 325.871094 172.105469 327.6875 172.039062 C 328.851562 171.996094 329.21875 172.460938 329.210938 173.589844 C 329.164062 178.570312 329.191406 183.554688 329.191406 188.539062 Z M 329.191406 188.539062 "/><path style=" stroke:none;fill-rule:nonzero;fill:#3f51b5;fill-opacity:1;" d="M 330.351562 163.941406 C 330.320312 166.886719 328.003906 169.148438 325.066406 169.101562 C 322.140625 169.054688 319.964844 166.757812 319.976562 163.738281 C 319.992188 160.800781 322.347656 158.46875 325.234375 158.542969 C 328.097656 158.617188 330.382812 161.03125 330.351562 163.941406 Z M 330.351562 163.941406 "/><path style=" stroke:none;fill-rule:nonzero;fill:#3f51b5;fill-opacity:1;" d="M 304.738281 159.488281 C 307.597656 159.488281 310.125 159.488281 312.792969 159.488281 C 312.824219 160.128906 312.878906 160.679688 312.878906 161.234375 C 312.882812 175.042969 312.859375 188.855469 312.917969 202.667969 C 312.925781 204.21875 312.550781 204.820312 310.9375 204.675781 C 309.445312 204.539062 307.921875 204.578125 306.417969 204.667969 C 305.144531 204.742188 304.679688 204.332031 304.714844 203.011719 C 304.796875 199.847656 304.742188 196.679688 304.742188 193.511719 C 304.742188 182.867188 304.742188 172.226562 304.742188 161.582031 C 304.738281 160.921875 304.738281 160.265625 304.738281 159.488281 Z M 304.738281 159.488281 "/><path style=" stroke:none;fill-rule:nonzero;fill:#3f51b5;fill-opacity:1;" d="M 271.1875 190.78125 C 271.425781 194.875 274.945312 198.027344 279.464844 198.324219 C 282.378906 198.519531 285.0625 197.824219 287.328125 195.945312 C 288.089844 195.3125 288.691406 195.261719 289.550781 195.699219 C 291.34375 196.617188 293.183594 197.433594 295.335938 198.445312 C 294.019531 199.769531 292.996094 201.019531 291.765625 202 C 285.332031 207.148438 274.265625 206.644531 268.257812 201.003906 C 263.203125 196.253906 261.601562 188.335938 264.328125 181.5625 C 266.917969 175.132812 272.828125 171.226562 279.972656 171.21875 C 290.417969 171.203125 297.640625 178.699219 297.394531 189.207031 C 297.363281 190.566406 296.691406 190.691406 295.628906 190.6875 C 288.136719 190.667969 280.640625 190.675781 273.152344 190.683594 C 272.496094 190.683594 271.839844 190.746094 271.1875 190.78125 Z M 271.640625 184.179688 C 277.484375 184.179688 283.214844 184.179688 288.976562 184.179688 C 288.230469 180.710938 284.664062 178.152344 280.632812 178.089844 C 276.207031 178.019531 272.59375 180.429688 271.640625 184.179688 Z M 271.640625 184.179688 "/><g clip-rule="nonzero" clip-path="url(#5ae7dd8d18)"><g clip-rule="nonzero" clip-path="url(#9668516d8f)"><path style=" stroke:none;fill-rule:nonzero;fill:#123257;fill-opacity:1;" d="M 226.113281 159.460938 L 226.113281 204.65625 L 255.191406 204.65625 L 255.191406 159.460938 Z M 226.113281 159.460938 "/></g></g><g clip-rule="nonzero" clip-path="url(#05945a6cff)"><g clip-rule="nonzero" clip-path="url(#00d7ab7a41)"><path style=" stroke:none;fill-rule:nonzero;fill:#123257;fill-opacity:1;" d="M 202.640625 160.011719 L 202.640625 204.835938 L 220.199219 204.835938 L 220.199219 160.011719 Z M 202.640625 160.011719 "/></g></g><g clip-rule="nonzero" clip-path="url(#c738db58f0)"><g clip-rule="nonzero" clip-path="url(#fc27524e48)"><path style=" stroke:none;fill-rule:nonzero;fill:#123257;fill-opacity:1;" d="M 167.324219 171.878906 L 167.324219 205.609375 L 196.234375 205.609375 L 196.234375 171.878906 Z M 167.324219 171.878906 "/></g></g><g clip-rule="nonzero" clip-path="url(#337ae8b8c5)"><g clip-rule="nonzero" clip-path="url(#756b1b3362)"><path style=" stroke:none;fill-rule:nonzero;fill:#123257;fill-opacity:1;" d="M 121.039062 170.160156 L 121.039062 207.382812 L 158.117188 207.382812 L 158.117188 170.160156 Z M 121.039062 170.160156 "/></g></g><path style=" stroke:none;fill-rule:nonzero;fill:#113155;fill-opacity:1;" d="M 255.113281 203.960938 C 255.113281 204.164062 255.03125 204.359375 254.96875 204.65625 L 246.957031 204.65625 C 246.957031 204.003906 246.964844 203.402344 246.957031 202.804688 C 246.863281 196.679688 246.851562 190.550781 246.644531 184.429688 C 246.535156 181.199219 245.046875 179.378906 242.601562 178.84375 C 239.925781 178.253906 237.277344 179.507812 235.730469 182.058594 C 234.398438 184.25 234.304688 186.703125 234.273438 189.136719 C 234.210938 193.707031 234.242188 198.28125 234.238281 202.851562 C 234.234375 203.414062 234.238281 203.980469 234.238281 204.648438 L 226.113281 204.648438 L 226.113281 159.460938 L 234.199219 159.460938 L 234.199219 175.128906 C 235.195312 174.449219 235.929688 173.90625 236.703125 173.417969 C 241.507812 170.382812 246.875 170.378906 250.90625 173.328125 C 253.75 175.410156 254.992188 178.339844 255.054688 181.679688 C 255.191406 189.101562 255.113281 196.53125 255.113281 203.960938 Z M 255.113281 203.960938 "/><path style=" stroke:none;fill-rule:nonzero;fill:#113155;fill-opacity:1;" d="M 220.132812 175.859375 C 220.164062 176.839844 220.140625 177.816406 220.140625 179.023438 L 215.316406 179.023438 C 215.277344 179.84375 215.226562 180.449219 215.226562 181.054688 C 215.21875 188.328125 215.179688 195.597656 215.257812 202.867188 C 215.273438 204.410156 214.785156 204.835938 213.3125 204.75 C 211.296875 204.632812 209.265625 204.722656 207.027344 204.722656 L 207.027344 179.082031 C 205.902344 179.082031 204.976562 179.03125 204.0625 179.09375 C 203.070312 179.164062 202.640625 178.824219 202.6875 177.777344 C 202.75 176.273438 202.746094 174.765625 202.6875 173.261719 C 202.648438 172.238281 203.074219 171.929688 204.066406 171.90625 C 206.972656 171.839844 206.96875 171.804688 206.96875 168.898438 L 206.96875 160.011719 L 215.222656 160.011719 L 215.222656 163.28125 C 215.222656 165.71875 215.246094 168.164062 215.210938 170.601562 C 215.199219 171.484375 215.410156 171.949219 216.417969 171.941406 C 217.597656 171.933594 219.304688 171.648438 219.820312 172.277344 C 220.132812 172.660156 220.199219 173.246094 220.195312 173.894531 C 220.191406 174.542969 220.113281 175.242188 220.132812 175.859375 Z M 220.132812 175.859375 "/><path style=" stroke:none;fill-rule:nonzero;fill:#113155;fill-opacity:1;" d="M 196.175781 172.832031 C 196.027344 180.195312 196.234375 187.601562 195.492188 194.910156 C 194.859375 201.117188 190.050781 205.011719 183.773438 205.460938 C 181.671875 205.609375 179.476562 205.496094 177.421875 205.054688 C 171.734375 203.824219 167.972656 199.105469 167.695312 192.667969 C 167.484375 187.8125 167.460938 182.949219 167.410156 178.085938 C 167.394531 176.457031 167.375 174.828125 167.34375 173.195312 C 167.324219 172.253906 167.667969 171.902344 168.609375 171.921875 C 170.535156 171.960938 172.460938 171.980469 174.386719 171.914062 C 175.480469 171.878906 175.8125 172.28125 175.804688 173.359375 C 175.765625 178.660156 175.761719 183.960938 175.824219 189.253906 C 175.84375 190.75 175.980469 192.277344 176.339844 193.722656 C 177.050781 196.574219 179.234375 197.980469 182.328125 197.804688 C 185.210938 197.640625 187.21875 195.875 187.632812 193.035156 C 187.8125 191.804688 187.914062 190.550781 187.921875 189.3125 C 187.957031 184.167969 187.941406 179.027344 187.945312 173.882812 L 187.945312 171.953125 C 190.59375 171.953125 192.980469 171.921875 195.363281 171.992188 C 195.65625 172 196.179688 172.542969 196.175781 172.832031 Z M 196.175781 172.832031 "/><path style=" stroke:none;fill-rule:nonzero;fill:#113155;fill-opacity:1;" d="M 157.3125 172.363281 C 156.375 171.535156 154.285156 171.960938 152.691406 171.941406 C 149.550781 171.902344 149.550781 171.929688 149.136719 175.195312 C 148.484375 174.695312 148.003906 174.324219 147.515625 173.957031 C 142.777344 170.402344 136.253906 170.160156 131.257812 173.359375 C 122.945312 178.683594 121.039062 191.582031 127.332031 199.546875 C 133.027344 206.746094 142.554688 207.382812 148.425781 202.140625 C 148.605469 201.980469 148.828125 201.871094 149.304688 201.554688 C 149.304688 202.46875 149.222656 203.132812 149.339844 203.765625 C 149.40625 204.121094 149.800781 204.679688 150.058594 204.6875 C 152.539062 204.757812 155.019531 204.726562 157.660156 204.726562 L 157.660156 202.671875 C 157.660156 194.054688 157.667969 185.4375 157.648438 176.816406 C 157.648438 175.273438 158.117188 173.066406 157.3125 172.363281 Z M 138.546875 197.707031 C 133.980469 196.582031 131.34375 191.96875 132.082031 186.382812 C 132.667969 181.941406 136.441406 178.6875 140.914062 178.765625 C 146.121094 178.851562 149.742188 182.875 149.65625 188.46875 C 149.558594 194.988281 144.527344 199.175781 138.546875 197.707031 Z M 138.546875 197.707031 "/><g clip-rule="nonzero" clip-path="url(#cc62ed9357)"><g clip-rule="nonzero" clip-path="url(#e973efc33e)"><path style=" stroke:none;fill-rule:nonzero;fill:url(#6f99b16122);" d="M 31.421875 156.246094 L 31.421875 207.96875 L 83.105469 207.96875 L 83.105469 156.246094 Z M 31.421875 156.246094 "/></g></g><g clip-rule="nonzero" clip-path="url(#24a8e45e71)"><g clip-rule="nonzero" clip-path="url(#1d513a399b)"><path style=" stroke:none;fill-rule:nonzero;fill:url(#a878f67b27);" d="M 18.21875 146.671875 L 18.21875 230.242188 L 93.523438 230.242188 L 93.523438 146.671875 Z M 18.21875 146.671875 "/></g></g><g clip-rule="nonzero" clip-path="url(#b6fcd941b2)"><g clip-rule="nonzero" clip-path="url(#707dd01d6a)"><path style=" stroke:none;fill-rule:nonzero;fill:url(#7932e2abb6);" d="M 5.339844 131.355469 L 5.339844 219.503906 L 56.753906 219.503906 L 56.753906 131.355469 Z M 5.339844 131.355469 "/></g></g><g clip-rule="nonzero" clip-path="url(#1bc241243c)"><g clip-rule="nonzero" clip-path="url(#c2e2153ed0)"><path style=" stroke:none;fill-rule:nonzero;fill:url(#dc511ea81b);" d="M 57.644531 160.835938 L 57.644531 232.972656 L 108.796875 232.972656 L 108.796875 160.835938 Z M 57.644531 160.835938 "/></g></g><g clip-rule="nonzero" clip-path="url(#b9f09a96f7)"><g clip-rule="nonzero" clip-path="url(#cd1011a8e6)"><path style=" stroke:none;fill-rule:nonzero;fill:url(#82d9e4527f);" d="M 67.425781 145.699219 L 67.425781 178.238281 L 95.21875 178.238281 L 95.21875 145.699219 Z M 67.425781 145.699219 "/></g></g></g></svg>