<svg xmlns="http://www.w3.org/2000/svg" xmlns:xlink="http://www.w3.org/1999/xlink" width="500" zoomAndPan="magnify" viewBox="0 0 375 374.999991" height="500" preserveAspectRatio="xMidYMid meet" version="1.2"><defs><clipPath id="1bc2f473ac"><path d="M 14.523438 14.523438 L 360.273438 14.523438 L 360.273438 360.273438 L 14.523438 360.273438 Z M 14.523438 14.523438 "/></clipPath></defs><g id="240714efce"><g clip-rule="nonzero" clip-path="url(#1bc2f473ac)"><path style=" stroke:none;fill-rule:nonzero;fill:#ffffff;fill-opacity:1;" d="M 48.347656 14.523438 L 326.453125 14.523438 C 327.558594 14.523438 328.664062 14.578125 329.765625 14.6875 C 330.871094 14.796875 331.964844 14.960938 333.050781 15.175781 C 334.136719 15.390625 335.210938 15.660156 336.269531 15.980469 C 337.332031 16.304688 338.371094 16.675781 339.394531 17.101562 C 340.417969 17.523438 341.417969 17.996094 342.394531 18.519531 C 343.371094 19.042969 344.320312 19.609375 345.242188 20.226562 C 346.164062 20.839844 347.054688 21.5 347.910156 22.203125 C 348.765625 22.90625 349.585938 23.648438 350.367188 24.433594 C 351.152344 25.214844 351.894531 26.035156 352.597656 26.890625 C 353.300781 27.746094 353.960938 28.636719 354.574219 29.558594 C 355.191406 30.476562 355.757812 31.425781 356.28125 32.40625 C 356.804688 33.382812 357.277344 34.382812 357.699219 35.40625 C 358.125 36.429688 358.496094 37.46875 358.820312 38.53125 C 359.140625 39.589844 359.410156 40.664062 359.625 41.75 C 359.839844 42.835938 360.003906 43.929688 360.113281 45.035156 C 360.222656 46.136719 360.273438 47.242188 360.273438 48.347656 L 360.273438 326.453125 C 360.273438 327.558594 360.222656 328.664062 360.113281 329.765625 C 360.003906 330.871094 359.839844 331.964844 359.625 333.050781 C 359.410156 334.136719 359.140625 335.210938 358.820312 336.269531 C 358.496094 337.332031 358.125 338.371094 357.699219 339.394531 C 357.277344 340.417969 356.804688 341.417969 356.28125 342.394531 C 355.757812 343.371094 355.191406 344.320312 354.574219 345.242188 C 353.960938 346.164062 353.300781 347.054688 352.597656 347.910156 C 351.894531 348.765625 351.152344 349.585938 350.367188 350.367188 C 349.585938 351.152344 348.765625 351.894531 347.910156 352.597656 C 347.054688 353.300781 346.164062 353.960938 345.242188 354.574219 C 344.320312 355.191406 343.371094 355.757812 342.394531 356.28125 C 341.417969 356.804688 340.417969 357.277344 339.394531 357.699219 C 338.371094 358.125 337.332031 358.496094 336.269531 358.820312 C 335.210938 359.140625 334.136719 359.410156 333.050781 359.625 C 331.964844 359.839844 330.871094 360.003906 329.765625 360.113281 C 328.664062 360.222656 327.558594 360.273438 326.453125 360.273438 L 48.347656 360.273438 C 47.242188 360.273438 46.136719 360.222656 45.035156 360.113281 C 43.929688 360.003906 42.835938 359.839844 41.75 359.625 C 40.664062 359.410156 39.589844 359.140625 38.53125 358.820312 C 37.46875 358.496094 36.429688 358.125 35.40625 357.699219 C 34.382812 357.277344 33.382812 356.804688 32.40625 356.28125 C 31.425781 355.757812 30.476562 355.191406 29.558594 354.574219 C 28.636719 353.960938 27.746094 353.300781 26.890625 352.597656 C 26.035156 351.894531 25.214844 351.152344 24.433594 350.367188 C 23.648438 349.585938 22.90625 348.765625 22.203125 347.910156 C 21.5 347.054688 20.839844 346.164062 20.226562 345.242188 C 19.609375 344.320312 19.042969 343.371094 18.519531 342.394531 C 17.996094 341.417969 17.523438 340.417969 17.101562 339.394531 C 16.675781 338.371094 16.304688 337.332031 15.980469 336.269531 C 15.660156 335.210938 15.390625 334.136719 15.175781 333.050781 C 14.960938 331.964844 14.796875 330.871094 14.6875 329.765625 C 14.578125 328.664062 14.523438 327.558594 14.523438 326.453125 L 14.523438 48.347656 C 14.523438 47.242188 14.578125 46.136719 14.6875 45.035156 C 14.796875 43.929688 14.960938 42.835938 15.175781 41.75 C 15.390625 40.664062 15.660156 39.589844 15.980469 38.53125 C 16.304688 37.46875 16.675781 36.429688 17.101562 35.40625 C 17.523438 34.382812 17.996094 33.382812 18.519531 32.40625 C 19.042969 31.425781 19.609375 30.476562 20.226562 29.558594 C 20.839844 28.636719 21.5 27.746094 22.203125 26.890625 C 22.90625 26.035156 23.648438 25.214844 24.433594 24.433594 C 25.214844 23.648438 26.035156 22.90625 26.890625 22.203125 C 27.746094 21.5 28.636719 20.839844 29.558594 20.226562 C 30.476562 19.609375 31.425781 19.042969 32.40625 18.519531 C 33.382812 17.996094 34.382812 17.523438 35.40625 17.101562 C 36.429688 16.675781 37.46875 16.304688 38.53125 15.980469 C 39.589844 15.660156 40.664062 15.390625 41.75 15.175781 C 42.835938 14.960938 43.929688 14.796875 45.035156 14.6875 C 46.136719 14.578125 47.242188 14.523438 48.347656 14.523438 Z M 48.347656 14.523438 "/></g><path style=" stroke:none;fill-rule:nonzero;fill:#1d2e5c;fill-opacity:1;" d="M 328.105469 213.933594 C 330.867188 213.933594 333.140625 216.207031 333.140625 218.96875 C 333.140625 221.730469 330.867188 224.003906 328.105469 224.003906 C 325.34375 224.003906 323.070312 221.730469 323.070312 218.96875 C 323.070312 216.207031 325.34375 213.933594 328.105469 213.933594 M 328.105469 223.214844 C 330.472656 223.214844 332.351562 221.335938 332.351562 218.96875 C 332.351562 216.601562 330.472656 214.722656 328.105469 214.722656 C 325.738281 214.722656 323.859375 216.601562 323.859375 218.96875 C 323.859375 221.335938 325.738281 223.214844 328.105469 223.214844 M 326.320312 216.695312 C 326.320312 216.601562 326.414062 216.394531 326.621094 216.394531 L 328.59375 216.394531 C 329.476562 216.394531 330.378906 216.882812 330.378906 217.972656 C 330.378906 219.0625 329.589844 219.457031 329.195312 219.550781 C 329.496094 220.152344 329.796875 220.640625 330.078125 221.222656 C 330.171875 221.429688 330.078125 221.617188 329.871094 221.617188 L 329.382812 221.617188 C 329.289062 221.617188 329.175781 221.523438 329.082031 221.410156 L 328.292969 219.625 L 327.203125 219.625 L 327.203125 221.296875 C 327.203125 221.394531 327.109375 221.597656 326.902344 221.597656 L 326.507812 221.597656 C 326.300781 221.597656 326.207031 221.503906 326.207031 221.296875 L 326.207031 216.65625 L 326.300781 216.65625 L 326.300781 216.695312 Z M 328.613281 218.761719 C 329.101562 218.761719 329.496094 218.367188 329.496094 217.972656 C 329.496094 217.484375 329.195312 217.183594 328.613281 217.183594 L 327.222656 217.183594 L 327.222656 218.761719 Z M 328.613281 218.761719 "/><path style=" stroke:none;fill-rule:nonzero;fill:#e21d39;fill-opacity:1;" d="M 184.636719 301.273438 C 119.132812 301.273438 66.367188 245.652344 71.011719 179.152344 C 74.957031 122.628906 121.105469 77.078125 177.609375 73.734375 C 226.222656 70.878906 268.894531 98.726562 287.875 139.632812 C 288.363281 140.628906 289.359375 141.210938 290.449219 141.210938 L 315.949219 141.210938 C 317.921875 141.210938 319.3125 139.238281 318.617188 137.453125 C 298.171875 82.417969 244.710938 43.386719 182.269531 44.382812 C 106.882812 45.679688 44.628906 106.542969 41.773438 181.820312 C 38.707031 263.332031 103.820312 330.417969 184.730469 330.417969 C 246.082031 330.417969 298.453125 291.6875 318.710938 237.441406 C 319.40625 235.65625 318.015625 233.683594 316.042969 233.683594 L 290.542969 233.683594 C 289.453125 233.683594 288.476562 234.28125 287.96875 235.261719 C 269.796875 274.195312 230.375 301.253906 184.621094 301.253906 "/><path style=" stroke:none;fill-rule:nonzero;fill:#1d2e5c;fill-opacity:1;" d="M 135.03125 150.308594 C 145.101562 150.308594 152.617188 153.464844 159.535156 159.703125 C 160.417969 160.492188 160.417969 161.675781 159.628906 162.558594 L 151.714844 170.75 C 151.019531 171.445312 149.929688 171.445312 149.140625 170.75 C 145.382812 167.386719 140.441406 165.621094 135.5 165.621094 C 124.039062 165.621094 115.636719 175.109375 115.636719 186.460938 C 115.636719 197.808594 124.132812 207.019531 135.59375 207.019531 C 140.328125 207.019531 145.476562 205.34375 149.125 202.167969 C 149.820312 201.570312 151.191406 201.570312 151.792969 202.265625 L 159.703125 210.664062 C 160.398438 211.359375 160.304688 212.730469 159.609375 213.425781 C 152.695312 220.152344 143.992188 223.214844 135.011719 223.214844 C 114.753906 223.214844 98.464844 207.113281 98.464844 186.855469 C 98.464844 166.597656 114.773438 150.308594 135.011719 150.308594 "/><path style=" stroke:none;fill-rule:nonzero;fill:#1d2e5c;fill-opacity:1;" d="M 171.785156 153.277344 C 171.785156 152.28125 172.667969 151.398438 173.664062 151.398438 L 185.820312 151.398438 C 186.816406 151.398438 187.792969 152.28125 187.792969 153.277344 L 187.792969 220.265625 C 187.792969 221.261719 186.910156 222.144531 185.820312 222.144531 L 173.664062 222.144531 C 172.667969 222.144531 171.785156 221.261719 171.785156 220.265625 Z M 171.785156 153.277344 "/><path style=" stroke:none;fill-rule:nonzero;fill:#1d2e5c;fill-opacity:1;" d="M 201.136719 212.5625 L 205.871094 204.160156 C 206.660156 202.882812 208.632812 203.070312 209.328125 203.558594 C 209.722656 203.765625 217.035156 209.085938 223.648438 209.085938 C 227.707031 209.085938 230.65625 206.511719 230.65625 203.054688 C 230.65625 198.804688 227.105469 195.535156 220.191406 192.867188 C 211.488281 189.410156 200.535156 182.683594 200.535156 170.542969 C 200.535156 160.566406 208.332031 150.382812 223.949219 150.382812 C 234.527344 150.382812 242.53125 155.71875 245.59375 157.992188 C 246.777344 158.6875 246.589844 160.566406 246.195312 161.261719 L 241.066406 169.058594 C 240.371094 170.148438 238.492188 171.128906 237.609375 170.339844 C 236.726562 169.851562 229.304688 164.210938 223.179688 164.210938 C 219.511719 164.210938 216.75 166.675781 216.75 169.34375 C 216.75 173.101562 219.8125 175.957031 227.820312 179.132812 C 235.730469 182.289062 248.261719 188.414062 248.261719 202.246094 C 248.261719 212.710938 239.28125 223.195312 224.363281 223.195312 C 211.226562 223.195312 203.917969 217.765625 201.53125 215.398438 C 200.648438 214.308594 200.347656 213.914062 201.136719 212.542969 "/><path style=" stroke:none;fill-rule:nonzero;fill:#1d2e5c;fill-opacity:1;" d="M 251.53125 219.570312 L 283.25 151.492188 C 283.550781 150.890625 284.246094 150.402344 284.925781 150.402344 L 285.921875 150.402344 C 286.617188 150.402344 287.3125 150.890625 287.59375 151.492188 L 319.3125 219.570312 C 319.914062 220.847656 319.105469 222.238281 317.640625 222.238281 L 306.382812 222.238281 C 304.597656 222.238281 303.714844 221.636719 302.832031 219.664062 L 299.167969 211.660156 L 271.601562 211.660156 L 267.9375 219.757812 C 267.449219 220.941406 266.359375 222.21875 264.273438 222.21875 L 253.113281 222.21875 C 251.832031 222.125 250.933594 220.828125 251.53125 219.550781 M 293.230469 197.808594 L 285.527344 181.105469 L 285.429688 181.105469 L 277.820312 197.808594 Z M 293.230469 197.808594 "/></g></svg>