<?xml version="1.0" encoding="UTF-8"?><svg id="a" xmlns="http://www.w3.org/2000/svg" viewBox="0 0 550 550"><path d="M20,0h510c11,0,20,9,20,20v510c0,11-9,20-20,20H20c-11,0-20-9-20-20V20C0,9,9,0,20,0Z" fill="#f6f7f8" stroke-width="0"/><path d="M417.33,214.4c2.83,0,5.14,2.31,5.14,5.14s-2.31,5.13-5.14,5.13-5.13-2.3-5.13-5.13,2.3-5.14,5.13-5.14M417.33,223.81c2.37,0,4.27-1.91,4.27-4.27s-1.89-4.27-4.27-4.27-4.27,1.89-4.27,4.27,1.91,4.27,4.27,4.27M415.55,217.19c0-.14.11-.28.27-.28h2.03c.89,0,1.76.53,1.76,1.6s-.76,1.46-1.16,1.56c.29.56.57,1.13.86,1.68.1.17-.04.38-.25.38h-.49c-.11,0-.21-.11-.25-.2l-.8-1.79h-1.06v1.71c0,.14-.11.27-.27.27h-.37c-.16,0-.27-.13-.27-.27v-4.68ZM417.85,219.33c.53,0,.86-.37.86-.82,0-.49-.33-.82-.86-.82h-1.4v1.63h1.4Z" fill="#1d2d5c" stroke-width="0"/><path d="M271.93,302.99c-66.43,0-119.93-56.38-115.17-123.8,4.05-57.31,50.79-103.5,108.14-106.92,49.33-2.94,92.54,25.31,111.81,66.83.47,1,1.46,1.65,2.56,1.65h25.88c1.97,0,3.38-1.97,2.69-3.81-20.8-55.86-75-95.45-138.34-94.41-76.42,1.26-139.56,62.95-142.47,139.33-3.15,82.68,62.94,150.69,144.91,150.69,62.24,0,115.29-39.23,135.86-94.3.69-1.85-.72-3.81-2.69-3.81h-25.9c-1.1,0-2.09.64-2.55,1.64-18.37,39.47-58.39,66.91-104.72,66.91" fill="#6cb33f" stroke-width="0"/><path d="M208.88,150.8c10.26,0,17.86,3.18,24.84,9.54.92.82.92,2.05.1,2.88l-8,8.31c-.72.72-1.85.72-2.57,0-3.8-3.39-8.83-5.23-13.85-5.23-11.6,0-20.12,9.65-20.12,21.14s8.62,20.83,20.22,20.83c4.82,0,10.05-1.74,13.75-4.93.72-.62,2.05-.62,2.67.1l8,8.52c.72.72.62,2.05-.1,2.77-6.98,6.77-15.8,9.96-24.94,9.96-20.53,0-37.05-16.32-37.05-36.85s16.52-37.05,37.05-37.05" fill="#1d2d5c" stroke-width="0"/><rect x="244.6" y="151.83" width="16.22" height="71.84" rx="1.95" ry="1.95" fill="#1d2d5c" stroke-width="0"/><path d="M272.82,213.92l4.83-8.52c.82-1.34,2.77-1.13,3.49-.62.41.21,7.8,5.65,14.57,5.65,4.1,0,7.08-2.57,7.08-6.16,0-4.31-3.59-7.6-10.57-10.37-8.83-3.49-19.92-10.37-19.92-22.69,0-10.16,7.91-20.42,23.71-20.42,10.67,0,18.88,5.44,21.97,7.7,1.23.71,1.03,2.57.61,3.28l-5.23,7.91c-.72,1.13-2.57,2.05-3.49,1.33-.92-.51-8.42-6.16-14.68-6.16-3.69,0-6.47,2.46-6.47,5.23,0,3.8,3.08,6.67,11.19,9.96,8,3.18,20.73,9.44,20.73,23.4,0,10.57-9.14,21.24-24.22,21.24-13.35,0-20.74-5.54-23.09-7.9-1.03-1.03-1.34-1.43-.52-2.87" fill="#1d2d5c" stroke-width="0"/><path d="M338.71,152.45c.1-.92,1.03-1.64,1.85-1.64h1.64c.52,0,1.44.41,1.74,1.03l23.81,44.34h.2l23.81-44.34c.31-.61,1.23-1.03,1.74-1.03h1.64c.82,0,1.74.72,1.85,1.64l11.59,68.97c.2,1.34-.72,2.26-1.95,2.26h-12.11c-.92,0-1.85-.82-1.95-1.64l-4.62-31.71h-.2l-17.24,33.25c-.31.61-1.23,1.13-1.74,1.13h-1.85c-.62,0-1.44-.52-1.74-1.13l-17.34-33.25h-.21l-4.51,31.71c-.1.82-.92,1.64-1.95,1.64h-12.11c-1.23,0-2.16-.92-1.95-2.26l11.6-68.97Z" fill="#1d2d5c" stroke-width="0"/><path d="M98.32,395.03c-.18,4.01-1.31,7.04-3.38,9.11-2.07,2.06-5.01,3.09-8.79,3.09-3.97,0-7.02-1.31-9.14-3.93-2.12-2.61-3.17-6.34-3.17-11.19v-5.92c0-4.83,1.09-8.55,3.29-11.17,2.19-2.61,5.23-3.92,9.12-3.92s6.74,1.07,8.73,3.21,3.12,5.22,3.39,9.23h-7.12c-.07-2.48-.45-4.19-1.14-5.13-.7-.94-1.98-1.41-3.85-1.41s-3.24.67-4.03,2c-.79,1.32-1.21,3.51-1.26,6.55v6.64c0,3.5.39,5.89,1.17,7.19.79,1.3,2.12,1.95,4.02,1.95s3.15-.46,3.86-1.36c.71-.91,1.12-2.56,1.21-4.94h7.1Z" fill="#1d2d5c" stroke-width="0"/><path d="M112.41,407.22c-3.51,0-6.25-1.04-8.21-3.14-1.97-2.09-2.95-5.09-2.95-8.98v-2.08c0-4.12.91-7.3,2.7-9.54,1.8-2.24,4.39-3.36,7.75-3.36s5.76,1.05,7.42,3.15c1.65,2.1,2.5,5.2,2.53,9.32v3.35h-13.59c.1,1.94.52,3.36,1.28,4.26.75.89,1.92,1.34,3.5,1.34,2.28,0,4.19-.78,5.72-2.34l2.68,4.13c-.84,1.16-2.05,2.1-3.65,2.81-1.59.72-3.33,1.07-5.19,1.07M108.11,391.19h6.83v-.63c-.03-1.56-.29-2.74-.77-3.55-.48-.8-1.32-1.2-2.51-1.2s-2.06.43-2.6,1.28c-.54.86-.86,2.22-.95,4.11" fill="#1d2d5c" stroke-width="0"/><path d="M137.92,387.21l-2.27-.19c-1.86,0-3.13.82-3.79,2.46v17.26h-6.86v-26.13h6.45l.19,2.83c1.08-2.21,2.57-3.31,4.47-3.31.77,0,1.4.1,1.88.31l-.07,6.76Z" fill="#1d2d5c" stroke-width="0"/><path d="M150.08,374.19v6.42h3.5v5.12h-3.5v12.99c0,1.04.14,1.74.42,2.13.28.38.83.58,1.63.58.66,0,1.2-.05,1.62-.17l-.05,5.31c-1.16.44-2.42.65-3.76.65-4.41,0-6.64-2.53-6.69-7.59v-13.9h-3.02v-5.12h3.02v-6.42h6.83Z" fill="#1d2d5c" stroke-width="0"/><path d="M156.83,373.86c0-1.07.34-1.94,1.01-2.61.68-.68,1.58-1.01,2.7-1.01s2.03.34,2.7,1.01c.68.67,1.01,1.54,1.01,2.61s-.34,1.91-1,2.61c-.67.69-1.57,1.04-2.72,1.04s-2.05-.35-2.72-1.04c-.67-.7-1-1.56-1-2.61M164,406.74h-6.86v-26.13h6.86v26.13Z" fill="#1d2d5c" stroke-width="0"/><path d="M170.36,406.74v-21.01h-3.16v-5.12h3.16v-2.34c.02-2.88.78-5.12,2.28-6.72s3.59-2.4,6.24-2.4c.8,0,1.83.16,3.09.49l-.05,5.46c-.47-.14-1.02-.22-1.67-.22-2.03,0-3.04,1.2-3.04,3.62v2.12h4.08v5.12h-4.08v21.01h-6.86Z" fill="#1d2d5c" stroke-width="0"/><path d="M184.5,373.86c0-1.07.34-1.94,1.01-2.61.67-.68,1.58-1.01,2.7-1.01s2.03.34,2.7,1.01c.68.67,1.01,1.54,1.01,2.61s-.34,1.91-1,2.61c-.67.69-1.58,1.04-2.72,1.04s-2.05-.35-2.72-1.04c-.67-.7-1-1.56-1-2.61M191.67,406.74h-6.86v-26.13h6.86v26.13Z" fill="#1d2d5c" stroke-width="0"/><path d="M207.01,407.22c-3.51,0-6.25-1.04-8.21-3.14-1.97-2.09-2.95-5.09-2.95-8.98v-2.08c0-4.12.91-7.3,2.7-9.54,1.8-2.24,4.39-3.36,7.75-3.36s5.76,1.05,7.42,3.15c1.65,2.1,2.5,5.2,2.54,9.32v3.35h-13.6c.1,1.94.52,3.36,1.28,4.26.76.89,1.92,1.34,3.5,1.34,2.29,0,4.2-.78,5.73-2.34l2.68,4.13c-.83,1.16-2.05,2.1-3.65,2.81-1.59.72-3.33,1.07-5.19,1.07M202.72,391.19h6.83v-.63c-.04-1.56-.29-2.74-.77-3.55-.49-.8-1.32-1.2-2.51-1.2s-2.06.43-2.6,1.28c-.54.86-.86,2.22-.95,4.11" fill="#1d2d5c" stroke-width="0"/><path d="M218.71,392.88c0-4.28.73-7.48,2.18-9.59,1.44-2.11,3.56-3.17,6.32-3.17,2.01,0,3.69.88,5.02,2.61v-13.09h6.88v37.09h-6.2l-.32-2.66c-1.4,2.09-3.2,3.14-5.41,3.14-2.74,0-4.83-1.05-6.26-3.14-1.44-2.09-2.18-5.17-2.21-9.23v-1.98ZM225.57,394.6c0,2.58.28,4.38.82,5.4.55,1.03,1.47,1.53,2.78,1.53s2.37-.61,3.07-1.81v-11.93c-.68-1.29-1.69-1.93-3.05-1.93-1.25,0-2.17.51-2.75,1.52-.58,1.01-.87,2.82-.87,5.41v1.81Z" fill="#1d2d5c" stroke-width="0"/><rect x="255.2" y="371.58" width="7.1" height="35.16" fill="#1d2d5c" stroke-width="0"/><path d="M273.68,380.62l.19,2.58c1.55-2.04,3.57-3.07,6.06-3.07,4.49,0,6.8,3.15,6.93,9.44v17.17h-6.86v-16.66c0-1.48-.22-2.55-.67-3.23-.44-.67-1.22-1-2.33-1-1.24,0-2.21.64-2.9,1.91v18.98h-6.86v-26.13h6.42Z" fill="#1d2d5c" stroke-width="0"/><path d="M292.85,406.74v-21.01h-3.17v-5.12h3.17v-2.34c.02-2.88.77-5.12,2.28-6.72,1.51-1.6,3.59-2.4,6.25-2.4.8,0,1.83.16,3.09.49l-.05,5.46c-.47-.14-1.02-.22-1.67-.22-2.03,0-3.04,1.2-3.04,3.62v2.12h4.08v5.12h-4.08v21.01h-6.86Z" fill="#1d2d5c" stroke-width="0"/><path d="M306.19,392.83c0-3.96.94-7.07,2.8-9.32,1.87-2.25,4.45-3.38,7.75-3.38s5.94,1.13,7.8,3.38c1.87,2.25,2.8,5.38,2.8,9.37v1.67c0,3.97-.92,7.08-2.78,9.32-1.85,2.24-4.44,3.36-7.78,3.36s-5.95-1.13-7.81-3.37c-1.86-2.25-2.79-5.37-2.79-9.36v-1.67ZM313.04,394.55c0,4.67,1.25,7,3.74,7,2.3,0,3.54-1.95,3.72-5.85l.03-2.87c0-2.38-.33-4.15-1-5.3-.66-1.15-1.59-1.73-2.8-1.73s-2.06.58-2.72,1.73c-.65,1.15-.98,2.92-.98,5.3v1.71Z" fill="#1d2d5c" stroke-width="0"/><path d="M343.99,387.21l-2.27-.19c-1.86,0-3.13.82-3.79,2.46v17.26h-6.86v-26.13h6.45l.19,2.83c1.08-2.21,2.57-3.31,4.47-3.31.77,0,1.4.1,1.88.31l-.07,6.76Z" fill="#1d2d5c" stroke-width="0"/><path d="M353.42,380.62l.19,2.42c1.53-1.93,3.55-2.9,6.06-2.9s4.45,1.18,5.53,3.53c1.49-2.34,3.63-3.53,6.4-3.53,4.57,0,6.91,3.17,7.03,9.49v17.12h-6.83v-16.68c0-1.52-.21-2.59-.63-3.24-.42-.64-1.13-.97-2.12-.97-1.27,0-2.22.78-2.85,2.34l.05.82v17.72h-6.83v-16.64c0-1.5-.2-2.58-.61-3.25-.4-.67-1.12-1-2.15-1-1.17,0-2.11.64-2.8,1.91v18.98h-6.83v-26.13h6.4Z" fill="#1d2d5c" stroke-width="0"/><path d="M395.59,406.75c-.2-.4-.39-1.08-.58-2.03-1.22,1.68-2.88,2.51-4.98,2.51s-4-.73-5.44-2.17c-1.44-1.45-2.16-3.33-2.16-5.63,0-2.73.88-4.85,2.63-6.35,1.74-1.5,4.26-2.26,7.54-2.3h2.07v-2.1c0-1.18-.2-2-.6-2.49-.4-.48-.99-.73-1.76-.73-1.71,0-2.56,1-2.56,3h-6.83c0-2.42.91-4.41,2.72-5.98,1.81-1.57,4.1-2.36,6.87-2.36s5.08.74,6.65,2.24c1.57,1.49,2.36,3.62,2.36,6.38v12.29c.04,2.25.35,4.02.97,5.29v.41h-6.88ZM391.56,401.87c.76,0,1.4-.15,1.93-.46.53-.31.93-.67,1.18-1.09v-5.43h-1.64c-1.16,0-2.07.37-2.73,1.11-.67.74-1.01,1.73-1.01,2.97,0,1.93.76,2.9,2.27,2.9" fill="#1d2d5c" stroke-width="0"/><path d="M413.91,374.19v6.42h3.5v5.12h-3.5v12.99c0,1.04.14,1.74.42,2.13.29.38.83.58,1.63.58.66,0,1.2-.05,1.62-.17l-.05,5.31c-1.16.44-2.42.65-3.76.65-4.41,0-6.64-2.53-6.69-7.59v-13.9h-3.02v-5.12h3.02v-6.42h6.83Z" fill="#1d2d5c" stroke-width="0"/><path d="M420.65,373.86c0-1.07.34-1.94,1.01-2.61.68-.68,1.58-1.01,2.7-1.01s2.03.34,2.7,1.01c.68.67,1.02,1.54,1.02,2.61s-.34,1.91-1.01,2.61c-.67.69-1.57,1.04-2.72,1.04s-2.04-.35-2.72-1.04c-.67-.7-1-1.56-1-2.61M427.82,406.74h-6.86v-26.13h6.86v26.13Z" fill="#1d2d5c" stroke-width="0"/><path d="M431.82,392.83c0-3.96.94-7.07,2.8-9.32,1.87-2.25,4.45-3.38,7.75-3.38s5.94,1.13,7.8,3.38c1.87,2.25,2.8,5.38,2.8,9.37v1.67c0,3.97-.92,7.08-2.78,9.32-1.85,2.24-4.44,3.36-7.78,3.36s-5.95-1.13-7.81-3.37c-1.86-2.25-2.79-5.37-2.79-9.36v-1.67ZM438.68,394.55c0,4.67,1.25,7,3.74,7,2.3,0,3.54-1.95,3.72-5.85l.03-2.87c0-2.38-.33-4.15-1-5.3-.66-1.15-1.59-1.73-2.8-1.73s-2.06.58-2.72,1.73c-.65,1.15-.98,2.92-.98,5.3v1.71Z" fill="#1d2d5c" stroke-width="0"/><path d="M462.98,380.62l.19,2.58c1.55-2.04,3.57-3.07,6.06-3.07,4.49,0,6.8,3.15,6.93,9.44v17.17h-6.86v-16.66c0-1.48-.22-2.55-.66-3.23-.44-.67-1.22-1-2.33-1-1.24,0-2.21.64-2.9,1.91v18.98h-6.86v-26.13h6.42Z" fill="#1d2d5c" stroke-width="0"/><path d="M444.09,442.7c2.83,0,5.14,2.31,5.14,5.14s-2.31,5.13-5.14,5.13-5.13-2.3-5.13-5.13,2.3-5.14,5.13-5.14M444.09,452.11c2.37,0,4.27-1.91,4.27-4.27s-1.9-4.27-4.27-4.27-4.27,1.9-4.27,4.27,1.91,4.27,4.27,4.27M442.31,445.49c0-.14.11-.28.27-.28h2.03c.89,0,1.76.53,1.76,1.6s-.76,1.46-1.16,1.56c.29.56.57,1.13.86,1.68.1.17-.04.38-.25.38h-.49c-.11,0-.21-.11-.25-.2l-.8-1.79h-1.06v1.71c0,.14-.11.27-.27.27h-.37c-.16,0-.27-.13-.27-.27v-4.68ZM444.61,447.63c.53,0,.86-.37.86-.82,0-.49-.33-.82-.86-.82h-1.4v1.63h1.4Z" fill="#1d2d5c" stroke-width="0"/><path d="M116.48,442.68c0-1.41-.36-2.49-1.09-3.21-.73-.73-2.04-1.47-3.95-2.25-3.49-1.32-6-2.87-7.52-4.65-1.53-1.77-2.3-3.87-2.3-6.29,0-2.93,1.04-5.28,3.12-7.06,2.08-1.77,4.72-2.66,7.92-2.66,2.13,0,4.03.45,5.7,1.35,1.68.9,2.96,2.17,3.86,3.81.9,1.64,1.35,3.5,1.35,5.59h-7c0-1.62-.35-2.87-1.04-3.72-.7-.85-1.7-1.28-3-1.28-1.23,0-2.18.37-2.87,1.09-.68.72-1.03,1.7-1.03,2.93,0,.95.38,1.82,1.15,2.59.76.77,2.12,1.57,4.06,2.4,3.39,1.22,5.85,2.73,7.39,4.51,1.53,1.78,2.3,4.05,2.3,6.8,0,3.03-.97,5.39-2.89,7.09-1.92,1.7-4.54,2.55-7.85,2.55-2.25,0-4.29-.46-6.14-1.38-1.85-.92-3.29-2.24-4.33-3.96s-1.56-3.75-1.56-6.09h7.04c0,2.01.39,3.47,1.17,4.37.79.91,2.06,1.37,3.82,1.37,2.45,0,3.68-1.3,3.68-3.9" fill="#1d2d5c" stroke-width="0"/><path d="M138.11,452.28c-3.47,0-6.17-1.03-8.12-3.11-1.94-2.07-2.91-5.03-2.91-8.88v-2.05c0-4.08.89-7.22,2.67-9.43,1.78-2.22,4.34-3.32,7.66-3.32s5.7,1.04,7.34,3.11c1.64,2.07,2.47,5.14,2.51,9.21v3.32h-13.45c.1,1.92.52,3.32,1.26,4.21.75.89,1.91,1.33,3.47,1.33,2.26,0,4.15-.77,5.66-2.31l2.65,4.08c-.83,1.14-2.03,2.07-3.61,2.78-1.57.71-3.29,1.06-5.13,1.06M133.86,436.43h6.76v-.62c-.03-1.54-.28-2.71-.76-3.51-.48-.8-1.31-1.19-2.48-1.19s-2.04.42-2.57,1.26c-.53.84-.85,2.19-.94,4.06" fill="#1d2d5c" stroke-width="0"/><path d="M160.22,446.67c1.96,0,2.96-1.28,2.99-3.82h6.35c-.04,2.81-.91,5.09-2.61,6.83-1.7,1.73-3.9,2.6-6.59,2.6-3.33,0-5.86-1.04-7.62-3.11-1.75-2.07-2.64-5.12-2.67-9.15v-2.05c0-4.06.86-7.16,2.59-9.29,1.73-2.13,4.28-3.2,7.66-3.2,2.85,0,5.1.88,6.73,2.64,1.64,1.76,2.48,4.26,2.51,7.49h-6.35c-.02-1.45-.25-2.57-.71-3.35-.47-.78-1.23-1.17-2.3-1.17-1.17,0-2.02.41-2.53,1.25-.51.83-.78,2.45-.81,4.86v2.62c0,2.1.1,3.57.31,4.41.21.84.55,1.45,1.03,1.84.47.39,1.15.59,2.03.59" fill="#1d2d5c" stroke-width="0"/><path d="M185.88,449.44c-1.4,1.89-3.28,2.84-5.64,2.84s-4.17-.82-5.4-2.45c-1.23-1.63-1.84-4-1.84-7.13v-16.74h6.76v16.91c.04,2.52.87,3.78,2.51,3.78,1.54,0,2.66-.67,3.34-2.01v-18.67h6.81v25.84h-6.35l-.19-2.36Z" fill="#1d2d5c" stroke-width="0"/><path d="M209.81,432.49l-2.25-.19c-1.85,0-3.09.82-3.75,2.44v17.07h-6.78v-25.84h6.37l.19,2.79c1.07-2.18,2.54-3.27,4.42-3.27.77,0,1.38.1,1.86.31l-.07,6.68Z" fill="#1d2d5c" stroke-width="0"/><path d="M213.07,419.28c0-1.06.34-1.91,1.01-2.58.67-.67,1.56-1,2.67-1s2.01.34,2.67,1,1,1.53,1,2.58-.33,1.89-.99,2.58c-.66.68-1.55,1.03-2.69,1.03s-2.03-.34-2.69-1.03c-.66-.68-1-1.55-1-2.58M220.17,451.81h-6.78v-25.84h6.78v25.84Z" fill="#1d2d5c" stroke-width="0"/><path d="M233.06,419.61v6.35h3.47v5.06h-3.47v12.84c0,1.02.14,1.73.42,2.11.28.38.82.57,1.61.57.65,0,1.19-.05,1.59-.17l-.04,5.26c-1.15.43-2.39.64-3.73.64-4.36,0-6.56-2.5-6.61-7.51v-13.75h-2.99v-5.06h2.99v-6.35h6.76Z" fill="#1d2d5c" stroke-width="0"/><path d="M248.32,440.56l3.44-14.59h7.21l-8.5,29.71c-1.28,4.38-3.67,6.57-7.19,6.57-.81,0-1.73-.15-2.77-.46v-5.28l.79.02c1.05,0,1.84-.2,2.37-.61.53-.41.94-1.11,1.21-2.11l.52-1.74-7.45-26.1h7.26l3.11,14.59Z" fill="#1d2d5c" stroke-width="0"/><polygon points="282.24 417.04 288.81 442.18 295.35 417.04 304.52 417.04 304.52 451.81 297.48 451.81 297.48 442.39 298.12 427.9 291.17 451.81 286.4 451.81 279.45 427.9 280.09 442.39 280.09 451.81 273.07 451.81 273.07 417.04 282.24 417.04" fill="#1d2d5c" stroke-width="0"/><path d="M321.9,451.81c-.19-.4-.38-1.07-.57-2.01-1.21,1.65-2.85,2.48-4.92,2.48s-3.96-.71-5.38-2.15c-1.43-1.43-2.14-3.29-2.14-5.56,0-2.71.86-4.8,2.6-6.28,1.73-1.48,4.21-2.24,7.46-2.27h2.06v-2.08c0-1.16-.2-1.98-.6-2.46-.4-.48-.98-.72-1.74-.72-1.69,0-2.54.99-2.54,2.96h-6.76c0-2.39.89-4.36,2.69-5.91,1.79-1.55,4.06-2.33,6.8-2.33s5.02.74,6.58,2.21c1.55,1.47,2.33,3.57,2.33,6.31v12.16c.03,2.22.35,3.97.95,5.23v.41h-6.8ZM317.91,446.98c.75,0,1.38-.15,1.91-.46.52-.3.91-.66,1.17-1.07v-5.37h-1.62c-1.15,0-2.05.37-2.71,1.1s-.99,1.71-.99,2.94c0,1.91.74,2.87,2.24,2.87" fill="#1d2d5c" stroke-width="0"/><path d="M338.64,425.97l.19,2.55c1.53-2.02,3.53-3.03,6-3.03,4.44,0,6.73,3.12,6.85,9.34v16.98h-6.78v-16.48c0-1.46-.22-2.52-.66-3.18-.44-.66-1.21-1-2.3-1-1.23,0-2.18.63-2.87,1.89v18.77h-6.79v-25.84h6.35Z" fill="#1d2d5c" stroke-width="0"/><path d="M368.61,451.81c-.19-.4-.38-1.07-.58-2.01-1.21,1.65-2.85,2.48-4.92,2.48s-3.96-.71-5.38-2.15c-1.43-1.43-2.14-3.29-2.14-5.56,0-2.71.87-4.8,2.6-6.28,1.73-1.48,4.21-2.24,7.46-2.27h2.05v-2.08c0-1.16-.2-1.98-.6-2.46-.4-.48-.98-.72-1.74-.72-1.69,0-2.54.99-2.54,2.96h-6.76c0-2.39.89-4.36,2.69-5.91,1.79-1.55,4.06-2.33,6.8-2.33s5.02.74,6.58,2.21c1.55,1.47,2.33,3.57,2.33,6.31v12.16c.04,2.22.35,3.97.96,5.23v.41h-6.8ZM364.62,446.98c.75,0,1.38-.15,1.91-.46.52-.3.91-.66,1.17-1.07v-5.37h-1.62c-1.15,0-2.05.37-2.71,1.1s-.99,1.71-.99,2.94c0,1.91.74,2.87,2.24,2.87" fill="#1d2d5c" stroke-width="0"/><path d="M378.35,438.1c0-4.23.76-7.39,2.29-9.48,1.53-2.09,3.67-3.13,6.43-3.13,2.34,0,4.14.92,5.42,2.77l.26-2.3h6.08v25.85c0,3.29-.92,5.81-2.77,7.55-1.85,1.74-4.5,2.61-7.95,2.61-1.41,0-2.91-.28-4.47-.85s-2.72-1.28-3.48-2.16l2.27-4.68c.64.67,1.46,1.21,2.48,1.64,1.02.42,1.98.63,2.89.63,1.51,0,2.6-.36,3.26-1.09.66-.73,1-1.89,1.01-3.5v-2.22c-1.29,1.69-2.97,2.53-5.04,2.53-2.76,0-4.89-1.07-6.39-3.21-1.5-2.14-2.27-5.16-2.3-9.06v-1.91ZM385.1,439.79c0,2.39.31,4.12.93,5.22.62,1.09,1.61,1.64,2.96,1.64s2.41-.5,3.08-1.5v-12.34c-.7-1.1-1.71-1.65-3.03-1.65s-2.33.55-2.97,1.65c-.64,1.1-.97,2.87-.97,5.3v1.7Z" fill="#1d2d5c" stroke-width="0"/><path d="M413.99,452.28c-3.47,0-6.17-1.03-8.12-3.11-1.94-2.07-2.91-5.03-2.91-8.88v-2.05c0-4.08.89-7.22,2.67-9.43,1.78-2.22,4.34-3.32,7.66-3.32s5.7,1.04,7.34,3.11c1.64,2.07,2.47,5.14,2.51,9.21v3.32h-13.45c.1,1.92.52,3.32,1.26,4.21.75.89,1.91,1.33,3.47,1.33,2.26,0,4.15-.77,5.66-2.31l2.65,4.08c-.83,1.14-2.03,2.07-3.61,2.78-1.57.71-3.29,1.06-5.13,1.06M409.74,436.43h6.76v-.62c-.03-1.54-.28-2.71-.76-3.51-.48-.8-1.31-1.19-2.48-1.19s-2.04.42-2.57,1.26c-.53.84-.85,2.19-.94,4.06" fill="#1d2d5c" stroke-width="0"/><path d="M439.52,432.49l-2.25-.19c-1.85,0-3.09.82-3.75,2.44v17.07h-6.78v-25.84h6.37l.19,2.79c1.07-2.18,2.54-3.27,4.42-3.27.77,0,1.38.1,1.86.31l-.07,6.68Z" fill="#1d2d5c" stroke-width="0"/></svg>