<?xml version="1.0" encoding="UTF-8" standalone="no"?>
<!-- Created with Inkscape (http://www.inkscape.org/) -->
<svg
   xmlns:svg="http://www.w3.org/2000/svg"
   xmlns="http://www.w3.org/2000/svg"
   version="1.0"
   width="111.98"
   height="44.799999"
   id="svg38898"
   xml:space="preserve"><defs
     id="defs38901"><clipPath
       id="clipPath38913"><path
         d="M 0,0 L 594,0 L 594,774 L 0,774 L 0,0 z"
         id="path38915" /></clipPath><clipPath
       id="clipPath38927"><path
         d="M -530.91296,0 L -530.91296,545.26538 L 864.7558,545.26538 L 864.7558,0 L -530.91296,0 z"
         id="path38929" /></clipPath><clipPath
       id="clipPath38935"><path
         d="M 0,0 L 0,360 L 360,360 L 360,0 L 0,0 z"
         id="path38937" /></clipPath><clipPath
       id="clipPath38961"><path
         d="M -44.54312,132.83516 L -44.54312,177.76497 L 62.91142,177.76497 L 62.91142,132.83516 L -44.54312,132.83516 z"
         id="path38963" /></clipPath></defs><g
     transform="matrix(1.25,0,0,-1.25,-539.88561,154.39707)"
     id="g38907"><path
       d="M 446.1356,103.629 C 445.33226,102.29919 443.75729,101.44648 442.16527,101.44648 C 439.8938,101.44648 438.22873,103.28698 438.22873,105.55845 C 438.22873,107.83214 439.8938,109.67497 442.16527,109.67497 C 443.75729,109.67497 445.33226,108.82106 446.1356,107.49023 L 448.97864,112.09389 C 447.25957,113.89169 444.84637,115.01231 442.16527,115.01231 C 436.94962,115.01231 432.71718,110.77647 432.71718,105.55845 C 432.71718,100.34167 436.94962,96.116482 442.16527,96.116482 C 444.84637,96.116482 447.25957,97.228026 448.97864,99.023611 L 446.1356,103.629 L 446.1356,103.629 z"
       id="path38967"
       style="fill:#000000;fill-opacity:1;fill-rule:nonzero;stroke:none" /><path
       d="M 450.62459,114.57797 L 456.03495,114.57797 L 456.03495,96.54622 L 450.62459,96.54622 L 450.62459,114.57797 L 450.62459,114.57797 z"
       id="path38969"
       style="fill:#000000;fill-opacity:1;fill-rule:nonzero;stroke:none" /><path
       d="M 457.4953,114.57797 L 457.4953,109.87081 L 461.60608,109.87081 L 461.60608,96.54622 L 466.98846,96.54622 L 466.98846,109.87081 L 471.09935,109.87081 L 471.09935,114.57797 L 457.4953,114.57797 L 457.4953,114.57797 z"
       id="path38971"
       style="fill:#000000;fill-opacity:1;fill-rule:nonzero;stroke:none" /><path
       d="M 482.71432,103.7325 C 484.77998,104.43682 486.08497,106.35724 486.08497,108.83797 C 486.08497,110.51767 485.57866,111.87226 484.57744,112.86905 C 483.45914,113.98848 481.75585,114.57797 479.65198,114.57797 L 472.56409,114.57797 L 472.56409,96.54622 L 477.97562,96.54622 L 477.97562,101.93467 L 481.4093,96.54622 L 488.22484,96.54622 L 482.71432,103.7325 L 482.71432,103.7325 z M 477.97562,110.68305 C 478.89587,110.67743 480.12675,110.58633 480.76131,109.95177 C 481.08525,109.62325 481.24504,109.17328 481.24504,108.56462 C 481.24504,107.07734 480.28647,106.46074 477.97562,106.4405 L 477.97562,110.68305 L 477.97562,110.68305 z"
       id="path38973"
       style="fill:#000000;fill-opacity:1;fill-rule:nonzero;stroke:none" /><path
       d="M 489.42411,114.57797 L 494.84013,114.57797 L 494.84013,96.54622 L 489.42411,96.54622 L 489.42411,114.57797 L 489.42411,114.57797 z"
       id="path38975"
       style="fill:#000000;fill-opacity:1;fill-rule:nonzero;stroke:none" /><path
       d="M 509.35551,106.2853 L 515.32492,114.57797 L 508.68723,114.57797 L 506.2098,110.76068 L 504.0745,114.57797 L 497.45704,114.57797 L 502.99895,106.31224 L 495.77389,96.54622 L 502.32164,96.54622 L 506.12884,101.8627 L 509.14168,96.54622 L 515.62657,96.54622 L 509.35551,106.2853 L 509.35551,106.2853 z"
       id="path38977"
       style="fill:#000000;fill-opacity:1;fill-rule:nonzero;stroke:none" /><path
       d="M 516.32628,112.45946 C 516.32628,113.67006 517.31175,114.64551 518.51569,114.64551 C 519.71942,114.64551 520.70276,113.67006 520.70276,112.45946 C 520.70276,111.2512 519.71942,110.27473 518.51569,110.27473 C 517.31175,110.27473 516.32628,111.2512 516.32628,112.45946 L 516.32628,112.45946 z M 518.51569,110.56605 C 519.562,110.56605 520.41243,111.41546 520.41243,112.45946 C 520.41243,113.50474 519.562,114.3563 518.51569,114.3563 C 517.4694,114.3563 516.61886,113.50474 516.61886,112.45946 C 516.61886,111.41546 517.4694,110.56605 518.51569,110.56605 L 518.51569,110.56605 z M 518.90943,112.38859 C 519.19069,112.43025 519.49895,112.56638 519.49895,112.9759 C 519.49895,113.5553 518.98143,113.67234 518.46831,113.67234 L 517.65834,113.67234 L 517.65834,111.26917 L 518.04764,111.26917 L 518.04764,112.21878 L 518.46831,112.21878 C 518.90499,112.21878 519.07143,112.08265 519.07143,111.57525 C 519.07143,111.43908 519.0759,111.3558 519.1029,111.26917 L 519.49895,111.26917 C 519.46741,111.32999 519.4517,111.50216 519.4517,111.66856 C 519.4517,112.09389 519.26941,112.31096 518.90943,112.38859 L 518.90943,112.38859 z M 518.04764,112.509 L 518.04764,113.38433 L 518.46831,113.38433 C 518.84646,113.38433 519.0759,113.25263 519.0759,112.9759 C 519.0759,112.65983 518.8621,112.509 518.46831,112.509 L 518.04764,112.509 L 518.04764,112.509 z"
       id="path38979"
       style="fill:#000000;fill-opacity:1;fill-rule:nonzero;stroke:none" /><path
       d="M 449.93712,119.48206 C 449.93712,121.3508 451.45487,122.8707 453.3292,122.8707 C 455.20575,122.8707 456.72119,121.3508 456.72119,119.48206 C 456.72119,117.61223 455.20575,116.08768 453.3292,116.08768 C 451.45487,116.08768 449.93712,117.61223 449.93712,119.48206 L 449.93712,119.48206 z"
       id="path38981"
       style="fill:#be002f;fill-opacity:1;fill-rule:nonzero;stroke:none" /><path
       d="M 492.13095,88.250215 C 494.00089,88.250215 495.52413,89.773387 495.52413,91.645537 C 495.52413,93.515372 494.00089,95.034154 492.13095,95.034154 C 490.2589,95.034154 488.73787,93.515372 488.73787,91.645537 C 488.73787,89.773387 490.2589,88.250215 492.13095,88.250215 L 492.13095,88.250215 z"
       id="path38983"
       style="fill:#be002f;fill-opacity:1;fill-rule:nonzero;stroke:none" /></g></svg>