<svg xmlns="http://www.w3.org/2000/svg" xmlns:xlink="http://www.w3.org/1999/xlink" width="500" zoomAndPan="magnify" viewBox="0 0 375 374.999991" height="500" preserveAspectRatio="xMidYMid meet" version="1.2"><g id="4598d04204"><path style=" stroke:none;fill-rule:nonzero;fill:#f4bd18;fill-opacity:1;" d="M 81.140625 158.445312 L 81.382812 158.261719 L 74.921875 159.785156 C 74.859375 159.785156 71.691406 160.578125 66.507812 161.371094 C 60.105469 154.421875 51.023438 150.457031 41.574219 150.457031 C 32.0625 150.457031 23.039062 154.421875 16.636719 161.371094 C 11.457031 160.519531 8.285156 159.785156 8.222656 159.785156 L 1.824219 158.261719 L 2.066406 158.445312 L 1.945312 158.324219 L 9.382812 173.871094 C 8.285156 177.222656 7.734375 180.757812 7.734375 184.355469 C 7.734375 203.070312 22.917969 218.253906 41.632812 218.253906 C 60.351562 218.253906 75.53125 203.070312 75.53125 184.355469 C 75.53125 180.757812 74.980469 177.222656 73.882812 173.871094 L 81.324219 158.324219 Z M 81.140625 158.445312 "/><path style=" stroke:none;fill-rule:nonzero;fill:#292829;fill-opacity:1;" d="M 75.042969 163.871094 L 70.898438 172.589844 C 70.289062 171.734375 69.617188 170.941406 68.886719 170.210938 C 71.566406 167.285156 73.703125 165.152344 75.042969 163.871094 M 70.105469 164.113281 C 67.726562 166.492188 64.558594 169.90625 61.019531 174.234375 C 55.105469 181.488281 47.304688 192.523438 41.574219 206 C 35.839844 192.585938 27.976562 181.488281 22.125 174.234375 C 18.589844 169.90625 15.417969 166.492188 13.039062 164.113281 C 19.074219 165.210938 29.5 166.734375 41.449219 166.917969 L 41.632812 166.917969 C 53.644531 166.734375 64.070312 165.210938 70.105469 164.113281 M 41.574219 156.617188 C 47.851562 156.617188 53.828125 158.6875 58.703125 162.53125 C 53.703125 163.078125 47.914062 163.566406 41.632812 163.6875 L 41.511719 163.6875 C 35.230469 163.566406 29.441406 163.140625 24.441406 162.53125 C 29.378906 158.6875 35.355469 156.617188 41.574219 156.617188 M 62.851562 161.980469 C 62.300781 162.042969 61.691406 162.164062 61.082031 162.226562 C 55.714844 157.46875 48.828125 154.847656 41.574219 154.847656 C 34.316406 154.847656 27.488281 157.46875 22.0625 162.226562 C 21.453125 162.164062 20.84375 162.042969 20.296875 161.980469 C 26.027344 156.554688 33.585938 153.507812 41.574219 153.507812 C 49.5 153.507812 57.117188 156.554688 62.851562 161.980469 M 14.320312 170.210938 C 13.589844 170.941406 12.917969 171.734375 12.308594 172.589844 L 8.164062 163.871094 C 9.441406 165.152344 11.636719 167.285156 14.320312 170.210938 M 23.464844 181.246094 C 25.902344 184.476562 28.402344 188.136719 30.78125 192.097656 C 30.476562 192.21875 30.109375 192.28125 29.746094 192.34375 C 29.441406 192.402344 29.195312 192.402344 28.890625 192.402344 C 25.050781 192.402344 21.941406 189.292969 21.941406 185.453125 C 22.003906 183.929688 22.488281 182.464844 23.464844 181.246094 M 20.234375 185.515625 C 20.234375 186.855469 20.539062 188.074219 21.085938 189.171875 C 19.867188 187.648438 19.074219 185.695312 19.074219 183.5625 C 19.074219 181.550781 19.746094 179.601562 20.964844 178.074219 C 21.394531 178.625 21.878906 179.234375 22.367188 179.84375 C 21.027344 181.367188 20.234375 183.378906 20.234375 185.515625 M 12.125 183.441406 C 12.125 179.355469 13.648438 175.515625 16.453125 172.589844 C 17.246094 173.503906 18.039062 174.417969 18.832031 175.453125 C 16.882812 177.648438 15.785156 180.515625 15.785156 183.5625 C 15.785156 190.332031 21.269531 195.816406 28.039062 195.816406 C 29.5625 195.816406 31.023438 195.511719 32.425781 195.023438 C 32.976562 196 33.523438 196.976562 34.074219 197.949219 C 32.121094 198.804688 29.988281 199.230469 27.855469 199.230469 C 27.855469 199.230469 27.792969 199.230469 27.792969 199.230469 C 27.734375 199.230469 27.671875 199.171875 27.609375 199.171875 L 27.609375 199.230469 C 19.074219 199.046875 12.125 192.039062 12.125 183.441406 M 12.371094 194.355469 C 13.164062 195.511719 14.136719 196.546875 15.175781 197.523438 C 17.367188 201.976562 20.660156 205.753906 24.746094 208.621094 C 29.683594 212.09375 35.535156 213.925781 41.632812 213.925781 C 52.851562 213.925781 63.09375 207.523438 68.09375 197.523438 C 69.128906 196.546875 70.105469 195.511719 70.898438 194.355469 C 66.75 206.546875 55.230469 215.328125 41.632812 215.328125 C 28.039062 215.265625 16.515625 206.484375 12.371094 194.355469 M 56.019531 202.402344 C 59.070312 202.28125 61.996094 201.425781 64.496094 200.023438 C 59.558594 207.21875 51.511719 211.730469 42.667969 212.09375 C 46.753906 206.484375 54.253906 203.132812 56.019531 202.402344 M 45.960938 204.167969 C 46.511719 203.070312 47 201.914062 47.546875 200.816406 C 48.277344 201.121094 49.070312 201.425781 49.804688 201.667969 C 48.644531 202.339844 47.304688 203.132812 45.960938 204.167969 M 33.34375 201.667969 C 34.132812 201.425781 34.867188 201.183594 35.597656 200.816406 C 36.144531 201.914062 36.695312 203.011719 37.183594 204.167969 C 35.902344 203.132812 34.5625 202.339844 33.34375 201.667969 M 40.476562 212.15625 C 35.171875 211.972656 30.109375 210.265625 25.722656 207.21875 C 22.917969 205.265625 20.539062 202.828125 18.648438 200.023438 C 21.210938 201.425781 24.074219 202.28125 27.183594 202.402344 C 28.953125 203.132812 36.453125 206.484375 40.476562 212.15625 M 61.628906 185.515625 C 61.628906 189.355469 58.519531 192.464844 54.679688 192.464844 C 53.949219 192.464844 53.15625 192.34375 52.425781 192.097656 C 54.863281 188.074219 57.421875 184.355469 59.921875 181.0625 C 61.019531 182.222656 61.628906 183.808594 61.628906 185.515625 M 61.019531 179.601562 C 61.386719 179.113281 61.8125 178.5625 62.179688 178.074219 C 63.398438 179.660156 64.070312 181.550781 64.070312 183.5625 C 64.070312 185.027344 63.703125 186.488281 63.03125 187.707031 C 63.214844 186.976562 63.335938 186.246094 63.335938 185.515625 C 63.398438 183.320312 62.542969 181.183594 61.019531 179.601562 M 67.359375 183.5625 C 67.359375 180.574219 66.265625 177.710938 64.3125 175.453125 C 65.167969 174.480469 65.957031 173.503906 66.691406 172.589844 C 69.496094 175.515625 71.019531 179.355469 71.019531 183.441406 C 71.019531 192.039062 64.128906 199.046875 55.535156 199.171875 L 55.535156 199.109375 C 55.535156 199.109375 55.472656 199.109375 55.351562 199.171875 C 55.351562 199.171875 55.289062 199.171875 55.289062 199.171875 C 53.15625 199.171875 51.023438 198.742188 49.070312 197.890625 C 49.621094 196.914062 50.167969 195.878906 50.71875 194.964844 C 52.121094 195.511719 53.582031 195.757812 55.105469 195.757812 C 61.875 195.816406 67.359375 190.332031 67.359375 183.5625 M 81.382812 158.261719 L 74.921875 159.785156 C 74.859375 159.785156 71.691406 160.519531 66.507812 161.371094 C 60.105469 154.421875 51.023438 150.457031 41.574219 150.457031 C 32.0625 150.457031 23.039062 154.421875 16.636719 161.371094 C 11.457031 160.519531 8.285156 159.785156 8.222656 159.785156 L 1.824219 158.261719 L 2.066406 158.445312 L 1.945312 158.324219 L 9.382812 173.871094 C 8.285156 177.222656 7.734375 180.757812 7.734375 184.355469 C 7.734375 203.070312 22.917969 218.253906 41.632812 218.253906 C 60.351562 218.253906 75.53125 203.070312 75.53125 184.355469 C 75.53125 180.757812 74.980469 177.222656 73.882812 173.871094 L 81.324219 158.324219 L 81.199219 158.445312 Z M 81.382812 158.261719 "/><path style=" stroke:none;fill-rule:nonzero;fill:#292829;fill-opacity:1;" d="M 359.816406 176.734375 C 360.058594 176.246094 360.363281 175.820312 360.730469 175.515625 C 361.097656 175.148438 361.523438 174.90625 362.011719 174.722656 C 362.5 174.539062 362.988281 174.417969 363.535156 174.417969 C 364.082031 174.417969 364.570312 174.539062 365.058594 174.722656 C 365.546875 174.90625 365.972656 175.148438 366.339844 175.515625 C 366.707031 175.882812 367.011719 176.246094 367.253906 176.734375 C 367.496094 177.222656 367.558594 177.769531 367.558594 178.378906 C 367.558594 178.992188 367.4375 179.539062 367.253906 180.027344 C 367.011719 180.515625 366.707031 180.941406 366.339844 181.246094 C 365.972656 181.613281 365.546875 181.855469 365.058594 182.039062 C 364.570312 182.222656 364.082031 182.28125 363.535156 182.28125 C 362.988281 182.28125 362.5 182.222656 362.011719 182.039062 C 361.523438 181.855469 361.097656 181.613281 360.730469 181.246094 C 360.363281 180.878906 360.058594 180.453125 359.816406 180.027344 C 359.574219 179.539062 359.511719 178.992188 359.511719 178.378906 C 359.511719 177.769531 359.632812 177.222656 359.816406 176.734375 M 360.792969 179.601562 C 360.976562 179.964844 361.15625 180.332031 361.402344 180.574219 C 361.644531 180.820312 362.011719 181.0625 362.375 181.246094 C 362.742188 181.429688 363.109375 181.488281 363.535156 181.488281 C 363.960938 181.488281 364.328125 181.429688 364.695312 181.246094 C 365.058594 181.0625 365.363281 180.878906 365.667969 180.574219 C 365.914062 180.269531 366.15625 179.964844 366.339844 179.601562 C 366.523438 179.234375 366.582031 178.808594 366.582031 178.378906 C 366.582031 177.953125 366.523438 177.527344 366.339844 177.160156 C 366.15625 176.796875 365.972656 176.429688 365.667969 176.1875 C 365.425781 175.882812 365.058594 175.699219 364.695312 175.515625 C 364.328125 175.394531 363.960938 175.269531 363.535156 175.269531 C 363.109375 175.269531 362.742188 175.332031 362.375 175.515625 C 362.011719 175.699219 361.707031 175.882812 361.402344 176.1875 C 361.15625 176.429688 360.914062 176.796875 360.792969 177.160156 C 360.609375 177.527344 360.546875 177.953125 360.546875 178.378906 C 360.546875 178.808594 360.667969 179.234375 360.792969 179.601562 M 365.363281 179.722656 C 365.242188 179.90625 365.121094 180.085938 364.9375 180.269531 C 364.753906 180.394531 364.570312 180.515625 364.328125 180.574219 C 364.144531 180.636719 363.902344 180.699219 363.65625 180.699219 C 363.292969 180.699219 362.988281 180.636719 362.742188 180.515625 C 362.4375 180.394531 362.253906 180.210938 362.011719 180.027344 C 361.828125 179.84375 361.644531 179.539062 361.523438 179.296875 C 361.402344 178.992188 361.339844 178.6875 361.339844 178.378906 C 361.339844 178.015625 361.402344 177.710938 361.460938 177.464844 C 361.585938 177.160156 361.707031 176.917969 361.890625 176.734375 C 362.070312 176.550781 362.316406 176.367188 362.621094 176.246094 C 362.925781 176.125 363.230469 176.0625 363.597656 176.0625 C 363.839844 176.0625 364.085938 176.125 364.265625 176.1875 C 364.511719 176.246094 364.695312 176.367188 364.816406 176.492188 C 365 176.613281 365.121094 176.796875 365.242188 176.980469 C 365.363281 177.160156 365.425781 177.40625 365.484375 177.710938 L 364.632812 177.710938 C 364.570312 177.464844 364.449219 177.285156 364.265625 177.101562 C 364.085938 176.980469 363.839844 176.917969 363.535156 176.917969 C 363.109375 176.917969 362.804688 177.039062 362.621094 177.34375 C 362.4375 177.648438 362.316406 177.953125 362.316406 178.441406 C 362.316406 178.625 362.316406 178.867188 362.375 179.050781 C 362.4375 179.234375 362.5 179.417969 362.621094 179.539062 C 362.742188 179.660156 362.863281 179.78125 362.988281 179.84375 C 363.167969 179.90625 363.292969 179.964844 363.472656 179.964844 C 363.777344 179.964844 364.023438 179.90625 364.207031 179.722656 C 364.390625 179.601562 364.511719 179.355469 364.570312 179.113281 L 365.425781 179.113281 C 365.609375 179.296875 365.484375 179.539062 365.363281 179.722656 "/><path style=" stroke:none;fill-rule:nonzero;fill:#292829;fill-opacity:1;" d="M 348.109375 174.050781 C 344.878906 174.050781 341.40625 175.820312 339.820312 178.378906 L 339.699219 178.378906 L 339.699219 174.785156 L 331.34375 174.785156 L 331.34375 201 L 339.941406 201 L 339.941406 186.917969 C 339.941406 183.5625 341.585938 181.125 344.574219 181.125 C 347.378906 181.125 348.84375 182.585938 348.84375 185.515625 L 348.84375 201 L 357.4375 201 L 357.4375 183.988281 C 357.5 177.40625 354.328125 174.050781 348.109375 174.050781 M 309.945312 187.953125 C 309.945312 183.378906 311.957031 180.636719 315.066406 180.636719 C 318.601562 180.636719 320.371094 183.746094 320.371094 187.953125 C 320.371094 192.160156 318.601562 195.207031 315.128906 195.207031 C 311.835938 195.207031 309.945312 192.402344 309.945312 187.953125 M 315.128906 174.050781 C 306.714844 174.050781 301.351562 180.394531 301.351562 187.953125 C 301.351562 195.9375 307.082031 201.792969 315.128906 201.792969 C 323.601562 201.792969 328.96875 195.511719 328.96875 187.953125 C 328.96875 179.964844 323.113281 174.050781 315.128906 174.050781 M 287.570312 174.050781 C 281.960938 174.050781 275.621094 176.0625 275.621094 182.101562 C 275.621094 186.0625 277.511719 188.441406 283.488281 189.71875 C 285.5 190.148438 287.511719 190.636719 289.277344 191.0625 C 291.167969 191.550781 291.960938 192.28125 291.960938 193.4375 C 291.960938 195.085938 290.132812 196.242188 287.9375 196.242188 C 285.132812 196.242188 283.363281 194.78125 283.363281 192.402344 L 275.195312 192.402344 C 275.378906 198.621094 280.132812 201.792969 288 201.792969 C 294.09375 201.792969 300.558594 199.351562 300.558594 192.523438 C 300.558594 189.171875 298.058594 186.0625 293.425781 185.332031 C 289.644531 184.660156 287.082031 184.113281 285.925781 183.625 C 284.765625 183.074219 284.15625 182.40625 284.15625 181.671875 C 284.15625 180.394531 285.195312 179.722656 287.816406 179.722656 C 290.316406 179.722656 291.65625 180.699219 291.65625 182.648438 L 299.582031 182.648438 C 299.460938 176.980469 295.191406 174.050781 287.570312 174.050781 M 255.992188 193.5 C 255.992188 191.730469 257.148438 190.695312 259.527344 190.148438 L 262.515625 189.476562 C 263.734375 189.234375 264.585938 188.929688 264.832031 188.746094 L 264.832031 189.78125 C 264.832031 194.535156 263.367188 196.488281 259.648438 196.488281 C 257.332031 196.488281 255.992188 195.511719 255.992188 193.5 M 260.867188 174.050781 C 253.246094 174.050781 248.734375 176.976562 248.429688 182.890625 L 256.480469 182.890625 C 256.90625 180.699219 258.367188 179.601562 260.746094 179.601562 C 262.941406 179.601562 264.890625 180.636719 264.890625 182.34375 C 264.890625 184.234375 263.671875 184.722656 261.234375 185.027344 C 259.28125 185.269531 257.394531 185.574219 255.199219 186 C 250.808594 186.734375 247.394531 188.929688 247.394531 193.867188 C 247.394531 198.742188 250.6875 201.792969 256.355469 201.792969 C 260.074219 201.792969 263 200.632812 265.015625 198.5625 C 265.195312 200.085938 265.320312 200.753906 265.5 201.058594 L 274.097656 201.058594 C 273.367188 199.597656 273.0625 197.464844 273.0625 195.632812 L 273.0625 182.710938 C 273.121094 177.285156 269.707031 174.050781 260.867188 174.050781 M 227.398438 185.207031 C 227.945312 181.855469 230.019531 179.84375 232.882812 179.84375 C 235.8125 179.84375 237.824219 182.160156 238.003906 185.207031 Z M 232.945312 174.050781 C 225.570312 174.050781 218.800781 179.539062 218.800781 187.832031 C 218.800781 196.488281 224.53125 201.792969 233.128906 201.792969 C 239.46875 201.792969 244.652344 198.742188 246.175781 193.074219 L 238.128906 193.074219 C 237.394531 194.839844 235.507812 195.9375 233.25 195.9375 C 229.835938 195.9375 227.582031 193.804688 227.398438 189.964844 L 246.664062 189.964844 L 246.664062 188.929688 C 246.664062 180.085938 241.542969 174.050781 232.945312 174.050781 M 217.214844 174.296875 C 213.375 174.296875 210.511719 176.246094 209.351562 179.417969 L 209.230469 179.417969 L 209.230469 174.84375 L 200.878906 174.84375 L 200.878906 201.058594 L 209.472656 201.058594 L 209.472656 187.953125 C 209.472656 184.722656 211.914062 181.917969 215.9375 181.917969 C 217.15625 181.917969 217.886719 182.101562 219.226562 182.40625 L 219.226562 174.601562 C 218.617188 174.355469 217.886719 174.296875 217.214844 174.296875 M 179.171875 185.207031 C 179.722656 181.855469 181.792969 179.84375 184.660156 179.84375 C 187.585938 179.84375 189.597656 182.160156 189.78125 185.207031 Z M 184.722656 174.050781 C 177.34375 174.050781 170.578125 179.539062 170.578125 187.832031 C 170.578125 196.488281 176.308594 201.792969 184.902344 201.792969 C 191.246094 201.792969 196.425781 198.742188 197.949219 193.074219 L 189.902344 193.074219 C 189.171875 194.839844 187.28125 195.9375 185.027344 195.9375 C 181.613281 195.9375 179.355469 193.804688 179.171875 189.964844 L 198.4375 189.964844 L 198.4375 188.929688 C 198.378906 180.085938 193.316406 174.050781 184.722656 174.050781 M 150.398438 187.648438 C 150.398438 182.890625 152.714844 180.636719 155.640625 180.636719 C 158.992188 180.636719 160.761719 183.5625 160.761719 187.648438 C 160.761719 192.039062 158.871094 195.207031 155.578125 195.207031 C 151.980469 195.207031 150.398438 192.707031 150.398438 187.648438 M 142.105469 164.96875 L 142.105469 201.058594 L 150.335938 201.058594 L 150.335938 198.011719 L 150.457031 198.011719 C 152.164062 200.511719 154.605469 201.792969 157.652344 201.792969 C 166.003906 201.792969 169.359375 194.597656 169.359375 187.34375 C 169.359375 180.269531 165.515625 174.050781 158.324219 174.050781 C 155.089844 174.050781 152.59375 175.269531 150.824219 177.710938 L 150.703125 177.710938 L 150.703125 164.96875 Z M 112.902344 174.84375 L 119.730469 193.257812 C 121.132812 197.035156 121.863281 198.988281 121.863281 199.960938 C 121.863281 201.730469 120.523438 202.890625 118.207031 202.890625 L 115.402344 202.890625 L 115.402344 209.839844 L 120.339844 209.839844 C 125.949219 209.839844 128.511719 208.558594 130.523438 203.132812 L 140.765625 174.84375 L 131.984375 174.84375 L 127.046875 191.914062 L 126.925781 191.914062 L 121.988281 174.84375 Z M 100.769531 174.050781 C 92.664062 174.050781 87.054688 179.722656 87.054688 188.316406 C 87.054688 196.609375 93.148438 201.730469 100.769531 201.730469 C 107.78125 201.730469 113.148438 197.769531 113.9375 190.695312 L 105.585938 190.695312 C 105.160156 193.746094 103.574219 195.207031 100.710938 195.207031 C 97.355469 195.207031 95.589844 192.34375 95.589844 188.257812 C 95.589844 182.890625 97.480469 180.574219 101.136719 180.574219 C 103.332031 180.574219 105.28125 182.101562 105.34375 184.355469 L 113.695312 184.355469 C 113.085938 177.832031 107.660156 174.050781 100.769531 174.050781 "/></g></svg>