<?xml version="1.0" encoding="utf-8"?>
<!-- Generator: Adobe Illustrator 19.2.1, SVG Export Plug-In . SVG Version: 6.00 Build 0)  -->
<svg version="1.1" id="layer" xmlns="http://www.w3.org/2000/svg" xmlns:xlink="http://www.w3.org/1999/xlink" x="0px" y="0px"
	 viewBox="0 0 652 652" style="enable-background:new 0 0 652 652;" xml:space="preserve">
<style type="text/css">
	.st0{fill:#F4BD18;}
	.st1{fill:#292829;}
</style>
<path class="st0" d="M151.5,278.3l0.4-0.3l-10.6,2.5c-0.1,0-5.3,1.3-13.8,2.6c-10.5-11.4-25.4-17.9-40.9-17.9
	c-15.6,0-30.4,6.5-40.9,17.9c-8.5-1.4-13.7-2.6-13.8-2.6L21.4,278l0.4,0.3l-0.2-0.2l12.2,25.5c-1.8,5.5-2.7,11.3-2.7,17.2
	c0,30.7,24.9,55.6,55.6,55.6c30.7,0,55.6-24.9,55.6-55.6c0-5.9-0.9-11.7-2.7-17.2l12.2-25.5L151.5,278.3z"/>
<path class="st1" d="M141.5,287.2l-6.8,14.3c-1-1.4-2.1-2.7-3.3-3.9C135.8,292.8,139.3,289.3,141.5,287.2 M133.4,287.6
	c-3.9,3.9-9.1,9.5-14.9,16.6c-9.7,11.9-22.5,30-31.9,52.1c-9.4-22-22.3-40.2-31.9-52.1c-5.8-7.1-11-12.7-14.9-16.6
	c9.9,1.8,27,4.3,46.6,4.6h0.3C106.4,291.9,123.5,289.4,133.4,287.6 M86.6,275.3c10.3,0,20.1,3.4,28.1,9.7c-8.2,0.9-17.7,1.7-28,1.9
	h-0.2c-10.3-0.2-19.8-0.9-28-1.9C66.6,278.7,76.4,275.3,86.6,275.3 M121.5,284.1c-0.9,0.1-1.9,0.3-2.9,0.4
	c-8.8-7.8-20.1-12.1-32-12.1c-11.9,0-23.1,4.3-32,12.1c-1-0.1-2-0.3-2.9-0.4c9.4-8.9,21.8-13.9,34.9-13.9
	C99.6,270.2,112.1,275.2,121.5,284.1 M41.9,297.6c-1.2,1.2-2.3,2.5-3.3,3.9l-6.8-14.3C33.9,289.3,37.5,292.8,41.9,297.6 M56.9,315.7
	c4,5.3,8.1,11.3,12,17.8c-0.5,0.2-1.1,0.3-1.7,0.4c-0.5,0.1-0.9,0.1-1.4,0.1c-6.3,0-11.4-5.1-11.4-11.4
	C54.5,320.1,55.3,317.7,56.9,315.7 M51.6,322.7c0,2.2,0.5,4.2,1.4,6c-2-2.5-3.3-5.7-3.3-9.2c0-3.3,1.1-6.5,3.1-9
	c0.7,0.9,1.5,1.9,2.3,2.9C52.9,315.9,51.6,319.2,51.6,322.7 M38.3,319.3c0-6.7,2.5-13,7.1-17.8c1.3,1.5,2.6,3,3.9,4.7
	c-3.2,3.6-5,8.3-5,13.3c0,11.1,9,20.1,20.1,20.1c2.5,0,4.9-0.5,7.2-1.3c0.9,1.6,1.8,3.2,2.7,4.8c-3.2,1.4-6.7,2.1-10.2,2.1
	c0,0-0.1,0-0.1,0c-0.1,0-0.2-0.1-0.3-0.1l0,0.1C49.7,344.9,38.3,333.4,38.3,319.3 M38.7,337.2c1.3,1.9,2.9,3.6,4.6,5.2
	c3.6,7.3,9,13.5,15.7,18.2c8.1,5.7,17.7,8.7,27.7,8.7c18.4,0,35.2-10.5,43.4-26.9c1.7-1.6,3.3-3.3,4.6-5.2
	c-6.8,20-25.7,34.4-48,34.4C64.4,371.5,45.5,357.1,38.7,337.2 M110.3,350.4c5-0.2,9.8-1.6,13.9-3.9c-8.1,11.8-21.3,19.2-35.8,19.8
	C95.1,357.1,107.4,351.6,110.3,350.4 M93.8,353.3c0.9-1.8,1.7-3.7,2.6-5.5c1.2,0.5,2.5,1,3.7,1.4C98.2,350.3,96,351.6,93.8,353.3
	 M73.1,349.2c1.3-0.4,2.5-0.8,3.7-1.4c0.9,1.8,1.8,3.6,2.6,5.5C77.3,351.6,75.1,350.3,73.1,349.2 M84.8,366.4
	c-8.7-0.3-17-3.1-24.2-8.1c-4.6-3.2-8.5-7.2-11.6-11.8c4.2,2.3,8.9,3.7,14,3.9C65.9,351.6,78.2,357.1,84.8,366.4 M119.5,322.7
	c0,6.3-5.1,11.4-11.4,11.4c-1.2,0-2.5-0.2-3.7-0.6c4-6.6,8.2-12.7,12.3-18.1C118.5,317.3,119.5,319.9,119.5,322.7 M118.5,313
	c0.6-0.8,1.3-1.7,1.9-2.5c2,2.6,3.1,5.7,3.1,9c0,2.4-0.6,4.8-1.7,6.8c0.3-1.2,0.5-2.4,0.5-3.6C122.4,319.1,121,315.6,118.5,313
	 M128.9,319.5c0-4.9-1.8-9.6-5-13.3c1.4-1.6,2.7-3.2,3.9-4.7c4.6,4.8,7.1,11.1,7.1,17.8c0,14.1-11.3,25.6-25.4,25.8l0-0.1
	c0,0-0.1,0-0.3,0.1c0,0-0.1,0-0.1,0c-3.5,0-7-0.7-10.2-2.1c0.9-1.6,1.8-3.3,2.7-4.8c2.3,0.9,4.7,1.3,7.2,1.3
	C119.9,339.6,128.9,330.6,128.9,319.5 M151.9,278l-10.6,2.5c-0.1,0-5.3,1.2-13.8,2.6c-10.5-11.4-25.4-17.9-40.9-17.9
	c-15.6,0-30.4,6.5-40.9,17.9c-8.5-1.4-13.7-2.6-13.8-2.6L21.4,278l0.4,0.3l-0.2-0.2l12.2,25.5c-1.8,5.5-2.7,11.3-2.7,17.2
	c0,30.7,24.9,55.6,55.6,55.6s55.6-24.9,55.6-55.6c0-5.9-0.9-11.7-2.7-17.2l12.2-25.5l-0.2,0.2L151.9,278z"/>
<path class="st1" d="M608.6,308.3c0.4-0.8,0.9-1.5,1.5-2c0.6-0.6,1.3-1,2.1-1.3c0.8-0.3,1.6-0.5,2.5-0.5c0.9,0,1.7,0.2,2.5,0.5
	c0.8,0.3,1.5,0.7,2.1,1.3c0.6,0.6,1.1,1.2,1.5,2c0.4,0.8,0.5,1.7,0.5,2.7c0,1-0.2,1.9-0.5,2.7c-0.4,0.8-0.9,1.5-1.5,2
	c-0.6,0.6-1.3,1-2.1,1.3c-0.8,0.3-1.6,0.4-2.5,0.4c-0.9,0-1.7-0.1-2.5-0.4c-0.8-0.3-1.5-0.7-2.1-1.3c-0.6-0.6-1.1-1.3-1.5-2
	c-0.4-0.8-0.5-1.7-0.5-2.7C608.1,310,608.3,309.1,608.6,308.3 M610.2,313c0.3,0.6,0.6,1.2,1,1.6c0.4,0.4,1,0.8,1.6,1.1
	c0.6,0.3,1.2,0.4,1.9,0.4c0.7,0,1.3-0.1,1.9-0.4c0.6-0.3,1.1-0.6,1.6-1.1c0.4-0.5,0.8-1,1.1-1.6c0.3-0.6,0.4-1.3,0.4-2
	c0-0.7-0.1-1.4-0.4-2c-0.3-0.6-0.6-1.2-1.1-1.6c-0.4-0.5-1-0.8-1.6-1.1c-0.6-0.2-1.2-0.4-1.9-0.4c-0.7,0-1.3,0.1-1.9,0.4
	c-0.6,0.3-1.1,0.6-1.6,1.1c-0.4,0.4-0.8,1-1,1.6c-0.3,0.6-0.4,1.3-0.4,2C609.8,311.7,610,312.4,610.2,313 M617.7,313.2
	c-0.2,0.3-0.4,0.6-0.7,0.9c-0.3,0.2-0.6,0.4-1,0.5c-0.3,0.1-0.7,0.2-1.1,0.2c-0.6,0-1.1-0.1-1.5-0.3c-0.5-0.2-0.8-0.5-1.2-0.8
	c-0.3-0.3-0.6-0.8-0.8-1.2c-0.2-0.5-0.3-1-0.3-1.5c0-0.6,0.1-1.1,0.2-1.5c0.2-0.5,0.4-0.9,0.7-1.2c0.3-0.3,0.7-0.6,1.2-0.8
	c0.5-0.2,1-0.3,1.6-0.3c0.4,0,0.8,0.1,1.1,0.2c0.4,0.1,0.7,0.3,0.9,0.5c0.3,0.2,0.5,0.5,0.7,0.8c0.2,0.3,0.3,0.7,0.4,1.2h-1.4
	c-0.1-0.4-0.3-0.7-0.6-1c-0.3-0.2-0.7-0.3-1.2-0.3c-0.7,0-1.2,0.2-1.5,0.7c-0.3,0.5-0.5,1-0.5,1.8c0,0.3,0,0.7,0.1,1
	c0.1,0.3,0.2,0.6,0.4,0.8c0.2,0.2,0.4,0.4,0.6,0.5c0.3,0.1,0.5,0.2,0.8,0.2c0.5,0,0.9-0.1,1.2-0.4c0.3-0.2,0.5-0.6,0.6-1h1.4
	C618.1,312.5,617.9,312.9,617.7,313.2"/>
<path class="st1" d="M589.4,303.9c-5.3,0-11,2.9-13.6,7.1h-0.2v-5.9h-13.7v43H576v-23.1c0-5.5,2.7-9.5,7.6-9.5c4.6,0,7,2.4,7,7.2
	v25.4h14.1v-27.9C604.8,309.4,599.6,303.9,589.4,303.9 M526.8,326.7c0-7.5,3.3-12,8.4-12c5.8,0,8.7,5.1,8.7,12
	c0,6.9-2.9,11.9-8.6,11.9C529.9,338.6,526.8,334,526.8,326.7 M535.3,303.9c-13.8,0-22.6,10.4-22.6,22.8c0,13.1,9.4,22.7,22.6,22.7
	c13.9,0,22.7-10.3,22.7-22.7C558,313.6,548.4,303.9,535.3,303.9 M490.1,303.9c-9.2,0-19.6,3.3-19.6,13.2c0,6.5,3.1,10.4,12.9,12.5
	c3.3,0.7,6.6,1.5,9.5,2.2c3.1,0.8,4.4,2,4.4,3.9c0,2.7-3,4.6-6.6,4.6c-4.6,0-7.5-2.4-7.5-6.3h-13.4c0.3,10.2,8.1,15.4,21,15.4
	c10,0,20.6-4,20.6-15.2c0-5.5-4.1-10.6-11.7-11.8c-6.2-1.1-10.4-2-12.3-2.8c-1.9-0.9-2.9-2-2.9-3.2c0-2.1,1.7-3.2,6-3.2
	c4.1,0,6.3,1.6,6.3,4.8h13C509.6,308.7,502.6,303.9,490.1,303.9 M438.3,335.8c0-2.9,1.9-4.6,5.8-5.5l4.9-1.1c2-0.4,3.4-0.9,3.8-1.2
	v1.7c0,7.8-2.4,11-8.5,11C440.5,340.7,438.3,339.1,438.3,335.8 M446.3,303.9c-12.5,0-19.9,4.8-20.4,14.5h13.2c0.7-3.6,3.1-5.4,7-5.4
	c3.6,0,6.8,1.7,6.8,4.5c0,3.1-2,3.9-6,4.4c-3.2,0.4-6.3,0.9-9.9,1.6c-7.2,1.2-12.8,4.8-12.8,12.9c0,8,5.4,13,14.7,13
	c6.1,0,10.9-1.9,14.2-5.3c0.3,2.5,0.5,3.6,0.8,4.1H468c-1.2-2.4-1.7-5.9-1.7-8.9v-21.2C466.4,309.2,460.8,303.9,446.3,303.9
	 M391.4,322.2c0.9-5.5,4.3-8.8,9-8.8c4.8,0,8.1,3.8,8.4,8.8H391.4z M400.5,303.9c-12.1,0-23.2,9-23.2,22.6
	c0,14.2,9.4,22.9,23.5,22.9c10.4,0,18.9-5,21.4-14.3h-13.2c-1.2,2.9-4.3,4.7-8,4.7c-5.6,0-9.3-3.5-9.6-9.8H423v-1.7
	C423,313.8,414.6,303.9,400.5,303.9 M374.7,304.3c-6.3,0-11,3.2-12.9,8.4h-0.2v-7.5h-13.7v43H362v-21.5c0-5.3,4-9.9,10.6-9.9
	c2,0,3.2,0.3,5.4,0.8v-12.8C377,304.4,375.8,304.3,374.7,304.3 M312.3,322.2c0.9-5.5,4.3-8.8,9-8.8c4.8,0,8.1,3.8,8.4,8.8H312.3z
	 M321.4,303.9c-12.1,0-23.2,9-23.2,22.6c0,14.2,9.4,22.9,23.5,22.9c10.4,0,18.9-5,21.4-14.3h-13.2c-1.2,2.9-4.3,4.7-8,4.7
	c-5.6,0-9.3-3.5-9.6-9.8h31.6v-1.7C343.8,313.8,335.5,303.9,321.4,303.9 M265.1,326.2c0-7.8,3.8-11.5,8.6-11.5
	c5.5,0,8.4,4.8,8.4,11.5c0,7.2-3.1,12.4-8.5,12.4C267.7,338.6,265.1,334.5,265.1,326.2 M251.5,289v59.2H265v-5h0.2
	c2.8,4.1,6.8,6.2,11.8,6.2c13.7,0,19.2-11.8,19.2-23.7c0-11.6-6.3-21.8-18.1-21.8c-5.3,0-9.4,2-12.3,6h-0.2V289H251.5z M203.6,305.2
	l11.2,30.2c2.3,6.2,3.5,9.4,3.5,11c0,2.9-2.2,4.8-6,4.8h-4.6v11.4h8.1c9.2,0,13.4-2.1,16.7-11l16.8-46.4h-14.4l-8.1,28h-0.2l-8.1-28
	H203.6z M183.7,303.9c-13.3,0-22.5,9.3-22.5,23.4c0,13.6,10,22,22.5,22c11.5,0,20.3-6.5,21.6-18.1h-13.7c-0.7,5-3.3,7.4-8,7.4
	c-5.5,0-8.4-4.7-8.4-11.4c0-8.8,3.1-12.6,9.1-12.6c3.6,0,6.8,2.5,6.9,6.2h13.7C203.9,310.1,195,303.9,183.7,303.9"/>
</svg>
