<?xml version="1.0" encoding="utf-8"?>
<!-- Generator: Adobe Illustrator 27.2.0, SVG Export Plug-In . SVG Version: 6.00 Build 0)  -->
<svg version="1.1" id="Layer_1" xmlns="http://www.w3.org/2000/svg" xmlns:xlink="http://www.w3.org/1999/xlink" x="0px" y="0px"
	 viewBox="0 0 512 512" style="enable-background:new 0 0 512 512;" xml:space="preserve">
<style type="text/css">
	.st0{fill:#697586;}
	.st1{fill:#EB5454;}
	.st2{fill-rule:evenodd;clip-rule:evenodd;fill:#EB5454;}
	.st3{fill-rule:evenodd;clip-rule:evenodd;fill:#697586;}
</style>
<g>
	<path class="st0" d="M0,255.19c0,23.16,14.9,41.11,38.24,41.11c12.93,0,23.88-5.74,29.26-15.44v16.52
		c0,15.62-10.05,25.85-25.67,25.85c-13.82,0-22.98-7-24.95-19.21H0.9c3.05,21,18.49,33.57,40.93,33.57
		c25.31,0,41.29-16.52,41.29-42.55v-78.99H68.94l-1.26,14c-5.21-10.23-15.62-16.34-28.9-16.34C14.9,213.72,0,232.03,0,255.19z
		 M15.8,254.83c0-15.26,9.51-27.29,25.31-27.29c16.16,0,25.67,11.49,25.67,27.29c0,16.16-9.87,27.65-25.85,27.65
		C25.49,282.66,15.8,270.45,15.8,254.83z"/>
	<path class="st0" d="M144.88,215.34c-3.23-0.72-5.57-1.08-8.44-1.08c-11.31,0-19.57,5.74-22.98,14.36l-1.08-12.57h-14.9v82.58h15.8
		v-43.8c0-15.8,9.34-24.95,24.24-24.95h7v-14.54H144.88z"/>
	<path class="st0" d="M175.57,300.61c13.28,0,24.59-5.92,28.9-15.44l1.62,13.28h13.46v-51.7c0-22.26-13.82-33.03-34.29-33.03
		c-21.18,0-35.37,11.31-35.37,28.54h13.82c0-9.87,7.54-15.8,21-15.8c11.13,0,19.39,4.85,19.39,18.67v2.33l-26.03,1.97
		c-19.39,1.44-30.7,10.95-30.7,26.21C147.39,290.74,157.8,300.61,175.57,300.61z M180.06,288.4c-10.23,0-16.7-4.31-16.7-13.11
		c0-8.08,5.74-13.46,19.75-14.9l21.18-1.62v4.31C204.3,278.53,195.14,288.4,180.06,288.4z"/>
	<path class="st0" d="M223.51,335.62c4.31,1.08,8.62,1.62,13.82,1.62c12.75,0,21-5.92,26.57-20.11l38.96-101.07h-16.34l-24.42,66.6
		l-24.06-66.6h-16.7l33.21,86.89l-2.87,7.9c-3.95,10.41-9.87,11.67-17.59,11.67h-10.59V335.62z"/>
	<rect x="312.55" y="174.41" class="st1" width="15.8" height="124.23"/>
	<path class="st1" d="M428.7,255.19c0,23.16,14.9,41.11,38.24,41.11c12.93,0,23.88-5.74,29.26-15.44v16.52
		c0,15.62-10.05,25.85-25.67,25.85c-13.82,0-22.98-7-24.95-19.21h-15.8c3.05,21,18.49,33.57,40.93,33.57
		c25.31,0,41.29-16.52,41.29-42.55v-78.99h-14.18l-1.26,14c-5.21-10.23-15.62-16.34-28.9-16.34
		C443.78,213.72,428.7,232.03,428.7,255.19z M444.68,254.83c0-15.26,9.51-27.29,25.31-27.29c16.16,0,25.67,11.49,25.67,27.29
		c0,16.16-9.87,27.65-25.85,27.65C454.19,282.66,444.68,270.45,444.68,254.83z"/>
	<path class="st2" d="M380.59,284.27c15.44,0,27.83-12.39,27.83-27.83c0-15.44-12.39-27.83-27.83-27.83s-27.83,12.39-27.83,27.83
		C352.76,271.89,365.15,284.27,380.59,284.27z M380.59,298.64c23.34,0,42.19-18.85,42.19-42.19c0-23.34-18.85-42.19-42.19-42.19
		s-42.19,18.85-42.19,42.19C338.4,279.79,357.25,298.64,380.59,298.64z"/>
	<path class="st3" d="M382.92,237.78c0.18-0.72,1.26-0.9,1.62-0.18l7.72,15.8c0.18,0.36,0.54,0.54,0.72,0.54h6.28
		c1.44,0,2.69,1.26,2.69,2.69s-1.08,2.51-2.51,2.51h-9.69c-0.36,0-0.72-0.18-0.72-0.54l-3.95-8.08l-6.64,24.59
		c-0.18,0.72-1.26,0.9-1.62,0.18l-7.72-15.8c-0.18-0.36-0.54-0.54-0.72-0.54h-6.64c-1.44,0-2.69-1.26-2.69-2.69
		c0-1.44,1.26-2.69,2.69-2.69h9.69c0.36,0,0.72,0.18,0.72,0.54l3.95,8.08L382.92,237.78z"/>
</g>
</svg>
